<svg xmlns="http://www.w3.org/2000/svg" width="76" height="71" viewBox="0 0 76 71">
    <g fill="none" fill-rule="evenodd">
        <path fill="#FFDB93" d="M40.243 3.164c-1.027 4.286-4.88 7.473-9.482 7.473-4.606 0-8.465-3.193-9.487-7.484h18.888l.08.011"/>
        <path fill="#FF8875" d="M30.76 10.637c4.603 0 8.456-3.187 9.483-7.473.181-.735.274-1.5.274-2.288h1.437l19.155 2.277v14.829h-8.822v38.3H9.19v-38.3H.876V3.152L19.523.877h1.483c0 .782.093 1.547.268 2.277 1.022 4.29 4.881 7.484 9.487 7.484"/>
        <path fill="#18252F" d="M40.116 4.03l-.019-.002H21.274V2.277h18.888c.042 0 .085.003.126.01l.082.012-.208 1.42v.31l-.046.002"/>
        <path fill="#18252F" d="M10.065 55.405h41.346V17.982c0-.483.393-.876.876-.876h7.947V3.93L41.902 1.751h-.545c-.045.551-.133 1.095-.264 1.623-1.148 4.79-5.398 8.14-10.332 8.14-4.943 0-9.194-3.355-10.339-8.158-.126-.526-.212-1.063-.256-1.605h-.59L1.75 3.928v13.178H9.19c.484 0 .876.393.876.876v37.423zm42.222 1.752H9.19c-.484 0-.875-.392-.875-.876V18.858H.876c-.484 0-.876-.392-.876-.876V3.152c0-.442.33-.815.77-.869L19.415.006c.036-.004.072-.006.107-.006h1.483c.484 0 .875.392.875.876 0 .699.083 1.396.245 2.072.956 4.012 4.507 6.814 8.635 6.814 4.121 0 7.67-2.797 8.63-6.801.167-.676.25-1.376.25-2.085 0-.484.392-.876.876-.876h1.437c.034 0 .069.002.103.006l19.156 2.277c.44.052.772.426.772.87v14.829c0 .484-.392.876-.876.876h-7.946V56.28c0 .484-.392.876-.876.876z"/>
        <g>
            <path fill="#D3EEE4" d="M66.195 32.817v1.611c0 1.53-1.238 2.774-2.768 2.774H3.643c-1.529 0-2.767-1.244-2.767-2.774v-1.61h65.32M.876 32.817L66.195 32.817 66.195 28.427.876 28.427z" transform="translate(7.415 31.512)"/>
            <path fill="#06C7CA" d="M60.14 11.093c0-2.411-1.95-4.361-4.355-4.361-2.41 0-4.361 1.95-4.361 4.36 0 2.406 1.95 4.356 4.36 4.356 2.407 0 4.356-1.95 4.356-4.355zm-31.707 3.526c5.295 0 9.89-2.995 12.185-7.38.992-1.903 1.558-4.069 1.558-6.363h24.02v27.486H19.761V14.62h8.671z" transform="translate(7.415 31.512)"/>
            <path fill="#18252F" d="M1.781 27.487H65.32V1.75H43.025c-.124 2.05-.682 4.072-1.63 5.894-2.536 4.843-7.502 7.85-12.962 7.85H14.62c-.894 0-1.807.097-2.715.29C6.309 16.988 2.17 21.833 1.78 27.488zm64.414 1.751H.875c-.483 0-.875-.392-.875-.876 0-6.844 4.853-12.854 11.54-14.29 1.029-.218 2.064-.329 3.08-.329h13.813c4.806 0 9.178-2.647 11.409-6.91.954-1.83 1.458-3.89 1.458-5.957 0-.484.392-.876.876-.876h24.02c.483 0 .875.392.875.876v27.486c0 .484-.392.876-.876.876z" transform="translate(7.415 31.512)"/>
            <path fill="#18252F" d="M1.751 29.302v5.126c0 1.047.849 1.898 1.892 1.898h59.784c1.044 0 1.892-.851 1.892-1.898v-5.126H1.751zm61.676 8.775H3.643C1.635 38.077 0 36.44 0 34.428v-6.001c0-.484.392-.876.876-.876h65.32c.483 0 .875.392.875.876v6.001c0 2.012-1.635 3.65-3.644 3.65zM55.785 7.607c-1.922 0-3.486 1.564-3.486 3.486 0 1.918 1.564 3.48 3.486 3.48 1.919 0 3.479-1.562 3.479-3.48 0-1.922-1.56-3.486-3.48-3.486zm0 8.717c-2.888 0-5.237-2.347-5.237-5.231 0-2.888 2.35-5.237 5.237-5.237 2.885 0 5.23 2.35 5.23 5.237 0 2.884-2.345 5.23-5.23 5.23zM40.618 8.115L46.794 8.115 46.794 6.364 40.618 6.364zM26.29 20.802L28.042 20.802 28.042 14.619 26.29 14.619zM34.866 20.048L32.356 14.397 33.957 13.686 36.467 19.338 34.866 20.048M42.167 15.652L37.064 12.166 38.052 10.72 43.155 14.206 42.167 15.652" transform="translate(7.415 31.512)"/>
            <path fill="#18252F" d="M18.886 28.427L20.638 28.427 20.638 14.929 18.886 14.929zM.876 33.693L66.195 33.693 66.195 31.941.876 31.941z" transform="translate(7.415 31.512)"/>
        </g>
    </g>
</svg>
