<svg xmlns="http://www.w3.org/2000/svg" width="53" height="66" viewBox="0 0 53 66">
    <g fill="none" fill-rule="evenodd">
        <g fill="#000" fill-rule="nonzero">
            <g>
                <g>
                    <g>
                        <path d="M52.879 57.005l-3.776-42.521c-.081-.944-.877-1.659-1.808-1.659h-7.768C39.42 5.732 33.621 0 26.5 0c-7.12 0-12.92 5.732-13.027 12.825H5.705c-.944 0-1.727.715-1.808 1.659L.121 57.005c0 .054-.013.108-.013.162 0 4.842 4.437 8.78 9.899 8.78h32.986c5.462 0 9.9-3.938 9.9-8.78 0-.054 0-.108-.014-.162zM26.5 3.641c5.111 0 9.278 4.1 9.386 9.184H17.114c.108-5.084 4.275-9.184 9.386-9.184zm16.493 58.664H10.007c-3.426 0-6.204-2.265-6.258-5.057L7.363 16.48h6.096v5.53c0 1.01.81 1.82 1.82 1.82 1.012 0 1.821-.81 1.821-1.82v-5.53h18.786v5.53c0 1.01.81 1.82 1.82 1.82 1.012 0 1.821-.81 1.821-1.82v-5.53h6.096l3.628 40.768c-.054 2.792-2.846 5.057-6.258 5.057z" transform="translate(-575 -1173) translate(0 1024) translate(575 145) translate(0 4)"/>
                    </g>
                </g>
            </g>
        </g>
    </g>
</svg>
