<svg xmlns="http://www.w3.org/2000/svg" width="25" height="22" viewBox="0 0 25 22">
    <g fill="none" fill-rule="evenodd">
        <g fill="#00B246" fill-rule="nonzero">
            <g>
                <path d="M17.783 16.9c-1.399 0-2.534 1.136-2.534 2.534 0 1.399 1.135 2.534 2.534 2.534 1.398 0 2.533-1.135 2.533-2.534 0-1.393-1.135-2.533-2.533-2.533zM24.286 3.443H5.03L4.707 2.13C4.405.877 3.287 0 1.996 0H.672C.317 0 .027.29.027.645c0 .355.29.646.645.646h1.329c.694 0 1.296.463 1.463 1.135l2.647 10.822c.3 1.26 1.42 2.136 2.71 2.136H20.14c1.312 0 2.437-.904 2.727-2.184l2.055-8.988c.043-.194 0-.382-.124-.538-.124-.15-.312-.231-.51-.231zM10.414 16.9c-1.399 0-2.534 1.136-2.534 2.534 0 1.399 1.135 2.534 2.534 2.534 1.398 0 2.533-1.135 2.533-2.534 0-1.393-1.14-2.533-2.533-2.533z" transform="translate(-1374 -31) translate(1374 31)"/>
            </g>
        </g>
    </g>
</svg>
