<svg xmlns="http://www.w3.org/2000/svg" width="19" height="18" viewBox="0 0 19 18">
    <g fill="none" fill-rule="evenodd">
        <g fill="#00B246" fill-rule="nonzero">
            <g>
                <g>
                    <g>
                        <g>
                            <path d="M16.766 2.512h-4.918v-.394C11.848.948 10.9 0 9.731 0H7.83C6.66 0 5.712.948 5.712 2.118v.394H.794c-.438 0-.794.356-.794.794 0 .439.356.794.794.794H2.37l.019 10.06c0 1.9 1.54 3.44 3.44 3.44h5.904c1.9 0 3.44-1.54 3.44-3.44l.02-10.06h1.574c.439 0 .795-.355.795-.794 0-.438-.356-.794-.795-.794zm-9.465-.394c0-.293.237-.53.529-.53h1.9c.293 0 .53.237.53.53v.394H7.3v-.394zm6.302 1.972l-.018 10.059c0 1.023-.83 1.852-1.853 1.852H5.829c-1.024 0-1.853-.83-1.853-1.852l-.019-10.06h9.646zM7.193 6.55c-.44 0-.795.356-.795.795v5.267c0 .439.355.794.794.794.439 0 .794-.355.794-.794V7.346c0-.439-.355-.795-.794-.795zm3.176 0c-.439 0-.795.356-.795.795v5.267c0 .439.356.794.795.794.438 0 .794-.355.794-.794V7.346c0-.439-.356-.795-.794-.795z" transform="translate(-908 -185) translate(1) translate(531.5 121) translate(0 46) translate(376 18)"/>
                        </g>
                    </g>
                </g>
            </g>
        </g>
    </g>
</svg>
