<svg xmlns="http://www.w3.org/2000/svg" width="84" height="75" viewBox="0 0 84 75">
    <g fill="none" fill-rule="evenodd">
        <path fill="#FFFFFE" d="M18.965 37.966L69.135 37.966 69.135 0 18.965 0z" transform="translate(2 2)"/>
        <path stroke="#2C4971" stroke-width="2.712" d="M18.965 37.966L69.135 37.966 69.135 0 18.965 0z" transform="translate(2 2)"/>
        <path fill="#A7CCE2" d="M36.593 8.136L51.508 8.136 51.508 0 36.593 0z" transform="translate(2 2)"/>
        <path stroke="#2C4971" stroke-width="2.712" d="M36.593 8.136L51.508 8.136 51.508 0 36.593 0z" transform="translate(2 2)"/>
        <path fill="#FFFFFE" d="M72.674 27.329c-3.286.762-6.148 2.735-8.362 7.045l-7.31 4.14c-.828-1.112-2.195-1.904-4.138-1.904H42.262c-1.547 0-4.764-4.068-7.218-4.068h-8.706c-2.51 0-5.722 2.186-7.524 3.866-2.786 2.784-9.866 9.474-10.66 10.12 4.43 3.831 13.645 12.612 15.68 14.408 2.754-2.753 3.831-5.343 6.105-5.343h24.78c2.065 0 13.345-10.287 14.787-11.906 1.389-1.557 8.761-11.094 10.476-15.105-1.076-1.451-3.868-2.053-7.308-1.253" transform="translate(2 2)"/>
        <path stroke="#2C4971" stroke-width="2.712" d="M37.948 46.102h14.916c6.78 0 6.78-9.492 0-9.492H42.262c-1.547 0-4.764-4.068-7.218-4.068h-8.706c-2.51 0-5.722 2.187-7.524 3.866-2.786 2.784-9.866 9.474-10.66 10.12 4.43 3.831 13.645 12.612 15.68 14.408 2.754-2.753 3.831-5.343 6.105-5.343h24.78c2.065 0 13.345-10.287 14.787-11.906 1.389-1.557 8.761-11.094 10.476-15.105-1.076-1.451-3.867-2.053-7.308-1.253-3.286.762-6.148 2.735-8.362 7.045l-7.38 3.592" transform="translate(2 2)"/>
        <path fill="#A7CCE2" d="M20.438 70.508L29.641 61.303 9.201 40.864 0 50.069 20.438 70.508" transform="translate(2 2)"/>
        <path stroke="#2C4971" stroke-width="2.712" d="M20.438 70.508l9.203-9.205L9.2 40.863 0 50.07l20.438 20.44zM7.568 48.791l3.566 3.564-3.565-3.564zm15.465-21.672h2.712-2.712zm5.424 0h2.712-2.712zm5.424 0h2.712-2.712z" transform="translate(2 2)"/>
    </g>
</svg>
