<svg xmlns="http://www.w3.org/2000/svg" width="87" height="69" viewBox="0 0 87 69">
    <g fill="none" fill-rule="evenodd">
        <g>
            <path fill="#1E282A" d="M68.924 19.156c-2.896-.92-4.45-2.474-6.598-4.627-2.882-2.886-6.468-6.478-14.895-10.063C32.742-1.785 17.818.323 17.19.415c-.124.019-.239.06-.347.113-1.147.159-2.285.463-3.412.922-3.26 1.328-5.694 3.615-7.233 6.797l-.003.008c-1.16 2.443-1.216 4.942-1.28 7.836-.085 3.895-.182 8.31-2.903 14.379C1 32.727.412 34.668.164 36.578c-.656 5.05.655 9.934 3.896 14.517 2.445 3.456 5.773 6.114 9.892 7.9 2.819 1.22 5.83 1.892 8.95 1.993.275.009.55.013.826.013 2.916 0 5.776-.502 8.513-1.495l.005-.001.013-.005.004-.002.003-.001c11.2-3.892 17.698-9.93 22.92-14.783 4.126-3.835 7.386-6.864 11.572-7.65 5.96-1.117 8.307-5.183 8.517-8.615.257-4.203-2.355-8.024-6.351-9.293" transform="translate(.928)"/>
            <path fill="#8B513D" d="M22.98 58.59c-2.818-.092-5.533-.697-8.073-1.798-3.71-1.608-6.7-3.992-8.887-7.083-2.923-4.132-4.06-8.326-3.475-12.822.216-1.67.743-3.398 1.657-5.436C7.12 24.94 7.228 20.063 7.314 16.143c.06-2.724.107-4.876 1.046-6.855 1.29-2.666 3.245-4.503 5.975-5.616 2.567-1.044 5.209-1.15 7.83-.322C30.778 6.28 41.87 19.1 44.558 29.235c.893 3.366 1.348 6.277 1.314 8.417-.035 2.285-.463 4.54-1.27 6.702-1.055 2.824-2.675 5.362-4.817 7.543-2.34 2.385-5.148 4.184-8.343 5.346-2.713.987-5.562 1.441-8.463 1.346" transform="translate(.928)"/>
            <path fill="#7C553A" d="M72.88 28.302c-.2 3.276-2.655 5.67-6.565 6.404-4.868.913-8.527 4.313-12.763 8.25-2.788 2.591-5.957 5.53-10.031 8.27 1.397-1.84 2.517-3.857 3.33-6.032.903-2.42 1.382-4.945 1.42-7.505.038-2.39-.431-5.442-1.394-9.07C44.527 19.756 35.38 7.41 26.06 2.453c5.54.166 13.074 1.09 20.433 4.22 7.997 3.404 11.4 6.812 14.136 9.551 2.208 2.213 4.116 4.123 7.57 5.22 2.946.935 4.871 3.755 4.682 6.858" transform="translate(.928)"/>
            <path fill="#1E282A" d="M31.814 35.566c-.479-2.078-1.734-3.84-3.535-4.963-1.788-1.113-3.899-1.462-5.947-.983-4.206.985-6.82 5.245-5.829 9.497.849 3.639 4.1 6.105 7.679 6.105.588 0 1.185-.067 1.781-.205 4.13-.961 6.809-5.289 5.85-9.451" transform="translate(.928)"/>
            <path fill="#E6E6E0" d="M25.42 42.679c-2.942.682-5.892-1.159-6.58-4.106-.691-2.965 1.12-5.933 4.039-6.616.416-.097.835-.146 1.252-.146 1.008 0 2 .282 2.878.83 1.256.782 2.132 2.012 2.465 3.463.668 2.898-1.19 5.908-4.054 6.575" transform="translate(.928)"/>
        </g>
        <g>
            <path fill="#1E282A" d="M13.101 48.484c-1.592-17.572 8.693-23.815 25.772-28.152C56.789 15.782 55.504 6.449 55.44 6.054c-.056-.347-.26-.651-.56-.834-3.499-2.133-7.326-3.638-11.375-4.474-6.647-1.372-13.39-.835-19.599 1.472C21.809 1.916 10.339.433 5.335 3.363c-.458.268-.685.804-.56 1.318.035.143.846 3.31 5.027 7.063-4.249 4.675-7.19 10.415-8.5 16.764-1.42 6.88.404 15.495 2.664 21.506C-.329 56.081-.004 61.93.011 62.184c.024.362.21.694.507.903.204.144.446.219.691.219.11 0 .221-.015.33-.047 4.232-1.212 7.201-3.744 8.465-4.986 1.587.79 5.193 2.282 9.593 2.123.363-.014.7-.19.918-.48.218-.29.292-.665.202-1.016-.063-.247-1.579-5.966-7.616-10.416" transform="rotate(180 43 34.255)"/>
            <path fill="#A1C5C9" d="M7.463 4.997c3.005-1.177 8.147-1.14 12.108-.836-.992.527-1.966 1.1-2.917 1.725-1.87 1.23-3.596 2.62-5.175 4.138C9.1 7.907 7.964 6.04 7.463 4.997" transform="rotate(180 43 34.255)"/>
            <path fill="#A1C5C9" d="M10.396 55.759c-.503-.31-1.157-.205-1.54.243-.028.031-2.431 2.795-6.381 4.398.212-2.05.997-5.756 3.804-9.484.25-.333.31-.772.159-1.16-2.24-5.707-4.149-14.158-2.786-20.763C6.9 13.263 20.806 2.405 36.276 2.405c2.225 0 4.483.224 6.745.691 3.568.737 6.95 2.03 10.062 3.846-.08 1.758-1.387 7.657-14.801 11.064C20.305 22.57 8.746 29.634 10.765 49.264c.036.347.22.661.505.86 3.799 2.66 5.702 5.952 6.546 7.842-4.248-.305-7.386-2.186-7.42-2.207" transform="rotate(180 43 34.255)"/>
            <path fill="#1E282A" d="M33.798 15.073c.207.142.442.21.676.21.383 0 .76-.183.991-.523.374-.548.234-1.294-.313-1.668-2.387-1.63-1.907-5.712-1.9-5.776.086-.656-.376-1.258-1.033-1.345-.66-.087-1.26.377-1.346 1.034-.03.227-.692 5.598 2.925 8.068M40.258 9.226c.318 0 .624-.126.852-.348.222-.222.348-.534.348-.852 0-.312-.126-.624-.348-.846-.06-.054-.12-.108-.186-.15-.06-.042-.132-.078-.204-.108-.072-.03-.15-.054-.228-.072-.39-.078-.804.054-1.08.33-.222.222-.354.534-.354.846 0 .318.132.63.354.852.222.222.534.348.846.348" transform="rotate(180 43 34.255)"/>
        </g>
    </g>
</svg>
