<svg xmlns="http://www.w3.org/2000/svg" width="80" height="83" viewBox="0 0 80 83">
    <g fill="none" fill-rule="evenodd">
        <path fill="#1E282A" d="M78.816 18.99c-.48-.511-1.165-.804-1.869-.804h-2.745l2.956-10.103c.199-.675-.185-1.383-.864-1.586l-10.272-3.08c-.326-.097-.678-.06-.972.101-.301.161-.525.436-.621.762l-4.371 14.737V1.28c0-.707-.57-1.28-1.28-1.28H46.886c-.339 0-.672.138-.915.384-.237.246-.371.578-.365.922l.39 19.326L40.622 5.95c-.122-.328-.371-.593-.691-.733-.32-.14-.685-.143-1.005-.007L29.26 9.265c-.314.133-.563.386-.691.705-.128.318-.122.674.012.988l3.168 7.228h-2.528c-.704 0-1.388.293-1.875.804-.48.51-.742 1.208-.704 1.911 0 .031.007.063.007.095l1.836 14.408c0 .01.007.017.007.027C12.518 36.395 0 44.623 0 54.601c0 1.308.282 2.522.838 3.64C.294 59.574 0 60.984 0 62.451c0 1.646.474 3.149 1.414 4.501-.012.074-.019.15-.019.227.007.073.039 1.832.224 3.723.263 2.666 1.818 5.027 4.167 6.315 4.057 2.227 11.84 4.88 25.85 4.88 14.015 0 21.791-2.653 25.855-4.88.986-.54 1.818-1.274 2.483-2.133.186.104.397.168.621.168h14.746c.678 0 1.241-.531 1.28-1.21l2.905-53.14c.032-.705-.224-1.401-.71-1.913"/>
        <path fill="#F1AA48" d="M66.522 6.239l7.82 2.345-2.816 9.616c-1.228.073-2.246 1.004-2.4 2.236-.512 4.293-4.582 6.261-8.928 7.126L66.522 6.24M57.498 2.56v25.407c-1.575.169-3.104.225-4.416.225-1.3 0-2.816-.055-4.378-.22v-.014L48.192 2.56h9.306M38.675 8.09l7.015 19.147c.038.111.096.21.166.302-4.3-.877-8.3-2.848-8.82-7.104-.153-1.263-1.215-2.215-2.489-2.244l-3.097-7.068 7.225-3.033"/>
        <path fill="#B79164" d="M60.717 54.601c0 5.23-6.867 8.662-19.181 9.805l-.02-.002c-.831.027-1.65.102-2.45.194-2.31.15-4.788.229-7.43.229-18.209 0-29.076-3.823-29.076-10.226 0-9.055 13.312-16.706 29.075-16.706 15.495 0 29.082 7.807 29.082 16.706z"/>
        <path fill="#50341D" d="M2.56 62.45c0-.574.064-1.136.173-1.686 1.536 1.48 3.699 2.724 6.477 3.72 2.905 1.132 4.742 3.304 7.276 6.95-5.952-1.108-13.926-3.598-13.926-8.983"/>
        <path fill="#F1AA48" d="M15.686 66.157c3.84.701 8.352 1.107 13.498 1.204-4.115 1.833-7.194 4.064-8.749 5.318l-.237-.35c-1.696-2.498-3.084-4.536-4.512-6.172"/>
        <path fill="#50341D" d="M39.245 67.148c.787-.052 1.555-.114 2.304-.183l.051-.002c.013 0 .026-.005.045-.006 9.12-.85 15.526-2.953 18.886-6.183.122.548.186 1.108.186 1.677 0 6.498-10.599 10.225-29.082 10.225-1.837 0-4.096-.19-6.093-.36l-.14-.011c3.257-2.057 8.128-4.463 13.843-5.157"/>
        <path fill="#B79164" d="M56.262 74.972c-3.801 2.083-11.155 4.566-24.627 4.566-13.465 0-20.819-2.483-24.62-4.565-1.607-.88-2.67-2.496-2.849-4.319-.032-.365-.064-.727-.09-1.073 3.047 2.182 7.758 3.779 14.049 4.724.064.01.128.015.192.015.045 0 .09-.007.134-.012l.679.994c.204.308.544.508.915.549.045.005.09.008.14.008.32 0 .634-.122.871-.344.02-.019.474-.437 1.293-1.077.192.137.416.228.665.244.704.05 1.492.116 2.317.186 2.042.173 4.359.368 6.304.368 13.223 0 22.592-1.909 27.552-5.495l-.077.913c-.179 1.823-1.241 3.438-2.848 4.318"/>
        <path fill="#DB3E38" d="M74.131 72.692H61.267c.192-.575.327-1.173.39-1.79.18-1.891.218-3.65.218-3.723.007-.045-.006-.087-.006-.13.928-1.373 1.408-2.906 1.408-4.598 0-1.44-.301-2.831-.87-4.154.575-1.134.87-2.366.87-3.696 0-10.443-14.49-19.266-31.642-19.266-.198 0-.403.007-.601.01.006-.087.006-.176-.007-.265l-1.824-14.333 4.48-.004h.813c.78 6.454 7.38 10.009 18.586 10.009 11.212 0 17.81-3.555 18.598-10.006l5.286.018-2.835 51.928"/>
        <path fill="#7C553A" d="M30.925 56.843c.07.051.147.09.224.121.077.032.16.058.237.07.083.02.166.026.25.026.338 0 .671-.134.908-.377.237-.237.371-.563.371-.903 0-.083-.006-.166-.025-.25-.013-.082-.039-.166-.07-.242-.033-.077-.071-.148-.116-.218-.051-.07-.102-.134-.16-.198-.48-.474-1.338-.474-1.811 0-.058.064-.115.128-.16.198s-.083.14-.115.218c-.032.076-.058.16-.077.243-.013.083-.026.166-.026.25 0 .339.141.665.378.902.057.064.121.115.192.16M50.752 54.155c.333 0 .666-.135.902-.378.237-.237.378-.563.378-.902 0-.083-.013-.167-.026-.25-.019-.083-.044-.16-.076-.243-.032-.077-.07-.147-.116-.218-.044-.07-.102-.134-.16-.192-.294-.3-.736-.435-1.152-.352-.083.013-.166.039-.243.07-.077.033-.153.071-.217.122-.07.045-.141.096-.199.16-.057.058-.109.122-.16.192-.045.07-.083.141-.115.218-.032.083-.058.16-.07.243-.02.083-.032.167-.032.25 0 .34.14.665.377.902.237.243.57.378.909.378M11.22 53.361c.031.083.07.154.114.224.045.07.103.135.16.192.237.243.57.378.91.378.076 0 .166-.007.249-.026.077-.013.16-.038.237-.07.076-.032.153-.077.217-.122.07-.045.141-.096.199-.16.057-.057.108-.121.16-.192.044-.07.083-.14.115-.224.032-.077.057-.153.077-.237.012-.083.019-.166.019-.25 0-.082-.007-.166-.02-.249-.019-.083-.044-.16-.076-.243-.032-.077-.07-.147-.115-.218-.052-.07-.103-.134-.16-.198-.058-.058-.128-.109-.199-.154-.064-.044-.14-.09-.217-.121-.077-.032-.16-.051-.237-.07-.423-.084-.864.05-1.159.345-.236.243-.377.57-.377.909 0 .083.013.166.025.25.02.083.045.16.077.236M22.835 47.697c.039.077.077.154.122.224s.102.135.16.192c.057.058.121.115.192.16.07.045.147.09.224.122.077.032.153.051.237.07.083.02.166.026.25.026.338 0 .671-.14.908-.378.237-.237.371-.57.371-.902 0-.083-.006-.167-.025-.25-.013-.083-.039-.166-.07-.243-.033-.077-.071-.147-.116-.218-.051-.07-.102-.134-.16-.198-.3-.294-.742-.429-1.158-.346-.084.013-.16.039-.237.07-.077.033-.154.071-.224.116-.07.051-.135.102-.192.16-.058.064-.115.128-.16.198s-.083.141-.122.218c-.032.077-.051.16-.07.243-.02.083-.026.167-.026.25 0 .083.007.166.026.25.019.083.038.16.07.236M38.816 47.697c.032.077.077.154.122.224.044.07.096.135.16.192.057.058.121.115.192.16.07.045.14.083.217.122.083.032.16.051.243.07.084.02.167.026.25.026.083 0 .166-.007.25-.026.083-.019.166-.038.243-.07.077-.039.147-.077.217-.122s.135-.102.192-.16c.064-.057.116-.121.16-.192.052-.07.09-.147.122-.224.032-.077.058-.153.07-.237.02-.083.026-.166.026-.25 0-.082-.006-.166-.026-.249-.012-.083-.038-.166-.07-.243-.032-.077-.07-.147-.122-.218-.044-.07-.096-.134-.16-.198-.057-.058-.121-.109-.192-.16-.07-.045-.14-.083-.217-.115-.077-.032-.16-.058-.243-.07-.167-.039-.333-.039-.5 0-.083.012-.16.038-.243.07-.077.032-.147.07-.217.115-.07.051-.135.102-.192.16-.244.237-.378.57-.378.909 0 .083.006.166.026.25.019.083.038.16.07.236"/>
    </g>
</svg>
