<svg xmlns="http://www.w3.org/2000/svg" width="96" height="78" viewBox="0 0 96 78">
    <g fill="none" fill-rule="evenodd">
        <g>
            <path fill="#1E282A" d="M83.375 52.82c-.18-.344-.383-.669-.61-.971-.005-.012-.023-.023-.029-.04 1.186-2.83 1.133-6.147-.43-9.058-1.998-3.724-5.925-5.746-9.888-5.52-.017-.034-.029-.07-.046-.098-.773-1.33-1.813-2.411-3.015-3.236.034-.093.063-.192.075-.296.262-2.528.25-5.107-.052-7.663-.866-7.454-4.026-14.27-9.145-19.73-.273-.465-1.249-1.935-3.172-3.143-2.039-1.279-5.612-2.516-11.01-1.157C42.848.34 39.507-.369 34.737.188c-.133.012-.255.053-.377.111-.97.47-2.156 1.302-3.184 2.464-.058 0-.122-.006-.186.005-5.757.668-10.271 2.998-12.63 6.45-.93-.466-1.842-.652-2.481-.657-.22.011-.459.064-.65.191-1.331.872-2.4 1.697-3.324 2.603-8.203 2.045-9.342 5.153-9.487 6.17C.418 22.725-.296 28.401.349 33.967c1.051 9.04 5.519 17.185 12.572 22.93 6.251 5.09 13.926 7.809 21.89 7.809.872 0 1.744-.04 2.621-.105.18.622.453 1.267.825 1.906 1.18 2.05 2.876 3.277 4.334 3.277.413 0 .808-.1 1.162-.308.006 0 .018-.006.023-.012.006-.006.006-.006.012-.006 6.019-3.747 10.742-5.095 14.362-5.252.04 1.69.476 3.352 1.278 4.851 1.946 3.62 5.67 5.682 9.522 5.682 1.72 0 3.462-.412 5.083-1.284 3.515-1.888 5.688-5.53 5.682-9.516.122-.058.25-.105.366-.169 1.9-1.022 3.294-2.724 3.916-4.793.622-2.068.401-4.258-.622-6.158" transform="translate(10.141)"/>
            <path fill="#3BAB48" d="M55.628 4.906c-1-.017-2.091.122-3.172.564-.14.058-.273.128-.4.192-.041-.041-.082-.076-.134-.11-.947-.663-1.848-1.279-2.731-1.843 2.922-.284 5.008.36 6.437 1.197" transform="translate(10.141)"/>
            <path fill="#A4CC69" d="M35.219 2.472c6.559-.715 9.894 1.174 14.832 4.607-.86.843-1.575 1.923-2.127 3.242-2.108.151-7.355 1.162-8.32 7.448-2.195.145-6.907 1.098-8.377 6.542-1.074-.575-2.207-.831-3.247-.918-.018-.11-.053-.22-.105-.325-1.034-1.999-1.272-3.823-.703-5.427.18-.5.424-.947.709-1.353.029-.035.052-.076.081-.117 1.278-1.748 3.23-2.614 3.254-2.626.586-.25.86-.923.616-1.51-2.464-5.967 2.399-9.017 3.387-9.563" transform="translate(10.141)"/>
            <path fill="#A4CC69" d="M29.525 5.342c-.773 1.795-1.028 4.003-.21 6.582-.627.372-1.469.953-2.277 1.76-1.806-1.928-4.107-1.922-5.763-1.417-.296-.645-.662-1.185-1.069-1.638 1.72-2.609 5.02-4.474 9.32-5.287M16.168 10.92c.75.121 2.65.673 3.3 3.189.093.348.343.639.68.778.331.14.715.117 1.028-.063.285-.169 2.685-1.447 4.422.749-.233.395-.442.808-.605 1.266-.737 2.051-.557 4.288.512 6.647-.21.029-.407.064-.581.099-1.191-1.79-2.742-2.963-4.63-3.492-2.656-.744-5.287.012-6.763.598-.767-1.568-1.86-2.614-3.08-3.294 1.552-3.038 2.929-4.601 5.717-6.478" transform="translate(10.141)"/>
            <path fill="#3BAB48" d="M8.273 16.566c-.773-.174-1.54-.25-2.272-.25.692-.534 1.76-1.156 3.382-1.766-.378.616-.744 1.279-1.11 2.016" transform="translate(10.141)"/>
            <path fill="#84BF42" d="M31.355 62.196c-.738-.186-10.951-2.916-11.445-14.257V47.91c-.017-.256-.39-6.35 4.74-6.949.634-.07 1.093-.65 1.017-1.29-.075-.633-.639-1.092-1.29-1.016-2.713.314-4.409 1.737-5.431 3.457-2.475-7.832-8.744-8.267-8.82-8.273-.639-.035-1.179.453-1.214 1.092-.04.64.447 1.185 1.087 1.226.29.023 7.093.604 7.587 11.887 0 .005 0 .011.006.017v.017c.261 5.758 2.771 9.598 5.537 12.102-3.12-1.214-6.072-2.916-8.738-5.09C7.808 49.735 3.643 42.136 2.66 33.7c-.587-5.038.023-10.18 1.754-14.908.634-.105 1.738-.221 2.917-.035 2.248.354 3.753 1.655 4.473 3.863.11.331.36.593.686.72.32.128.685.1.988-.07.034-.017 3.23-1.777 6.204-.935 1.517.43 2.754 1.488 3.678 3.144.273.482.842.708 1.371.54.03-.012 3.248-.982 5.63.47 1.4.849 2.3 2.411 2.678 4.648.105.628.697 1.052 1.33.953.024-.006 2.348-.343 4.096 1.063 1.26 1.017 1.97 2.72 2.115 5.066.04.64.598 1.133 1.232 1.087.639-.041 1.127-.587 1.086-1.232-.186-3.038-1.197-5.31-3.004-6.75-1.661-1.325-3.59-1.587-4.775-1.599-.384-1.522-1.005-2.788-1.853-3.782.412-2.585 1.673-4.363 3.776-5.252 1.76-.743 3.48-.615 3.497-.61.314.024.616-.075.854-.273.239-.203.384-.494.407-.807.198-2.789 1.377-4.706 3.497-5.688 1.668-.773 3.347-.697 3.358-.691.506.034.988-.285 1.162-.773.773-2.161 1.947-3.579 3.498-4.218 2.202-.906 4.63-.04 5.293.232 4.735 5.084 7.663 11.417 8.464 18.348.256 2.184.28 4.386.093 6.553-2.504-.935-5.356-.9-7.907.325-.093.041-.168.1-.244.157-2.62-1.249-5.78-1.272-8.511.192-2.208 1.19-3.829 3.166-4.549 5.571-.726 2.406-.47 4.95.72 7.158 1.064 1.987 2.79 3.497 4.88 4.305-2.062 3.05-5.896 6.46-12.862 9.644-.064.03-.122.07-.18.11-.024.012-.053.024-.082.035-.691.401-1.098 1.122-1.22 2.022-1.97.145-3.927.116-5.856-.087" transform="translate(10.141)"/>
            <path fill="#168A44" d="M40.267 65.345c-.9-1.563-.871-2.864-.685-3.068.017 0 .035-.005.058-.005.354 0 1.423.644 2.277 2.12.9 1.557.877 2.859.686 3.062v.006c-.308.07-1.435-.558-2.336-2.115M81.772 58.304c-.442 1.475-1.435 2.69-2.789 3.416-.83.447-1.76.685-2.695.691-.64 0-1.157.523-1.157 1.168.006.639.523 1.156 1.162 1.156h.006c.355-.006.709-.035 1.063-.081-.238 2.84-1.882 5.385-4.427 6.756-4.113 2.208-9.255.657-11.462-3.45-.604-1.134-.947-2.388-1-3.66.041 0 .082-.007.117-.012 2.498.29 4.299 1.167 5.49 2.004.523.366 1.249.238 1.615-.29.372-.523.244-1.25-.285-1.616-.726-.51-1.65-1.04-2.77-1.475 1.678-1.075 3.194-2.876 3.758-5.752.128-.627-.285-1.243-.912-1.365-.628-.128-1.243.284-1.365.912-.825 4.183-4.102 5.066-5.555 5.246-3.828-.372-8.976.465-15.604 4.125-.128-.895-.471-1.877-1.029-2.847-.528-.906-1.15-1.65-1.812-2.196.615-.325 1.202-.645 1.772-.97.005-.006.017-.006.029-.012.029-.017 3.195-1.853 7.302-.807.622.162 1.255-.215 1.412-.837.157-.622-.215-1.255-.836-1.412-1-.255-1.947-.371-2.836-.395 3.196-2.626 5.02-5.24 6.03-7.576.24-.337.547-.627.925-.825 1.005-.54 2.254-.395 3.108.36.482.425 1.214.378 1.638-.104.424-.482.384-1.214-.099-1.638-1.266-1.116-2.997-1.5-4.595-1.098.14-.86.18-1.65.163-2.33-.018-.64-.57-1.162-1.191-1.127-.645.011-1.15.546-1.133 1.19.035 1.169-.146 2.685-.848 4.416-.11.175-.215.355-.308.546-.006 0-.012-.005-.012-.005-1.685-.587-3.08-1.772-3.922-3.341-.894-1.667-1.086-3.579-.54-5.391.54-1.807 1.76-3.295 3.428-4.19 3.277-1.76 7.384-.673 9.348 2.481.337.547 1.057.71 1.603.372.54-.342.709-1.057.366-1.603-.459-.738-1.01-1.389-1.627-1.952 3.173-.988 6.7.162 8.651 2.876-.65.197-1.284.459-1.905.795-1.116.599-2.104 1.377-2.934 2.324-.424.483-.372 1.215.104 1.639.482.424 1.22.377 1.644-.105.645-.738 1.412-1.348 2.284-1.812 3.99-2.144 8.976-.64 11.12 3.346 2.143 3.991.639 8.976-3.347 11.12-.57.308-.778 1.01-.476 1.574.209.39.61.61 1.028.61.186 0 .372-.04.546-.133 1.377-.744 2.516-1.755 3.405-2.929.65 1.32.778 2.8.354 4.213" transform="translate(10.141)"/>
            <path fill="#145F36" d="M72.256 49.27c-1.098-.651-2.429-.78-3.637-.36-.604.208-.924.87-.715 1.475.21.61.872.93 1.476.72.563-.197 1.185-.14 1.696.169.564.325.924.889.994 1.534.064.592.563 1.04 1.15 1.04.04 0 .087-.006.128-.012.639-.064 1.098-.64 1.028-1.278-.145-1.366-.935-2.591-2.12-3.289" transform="translate(10.141)"/>
            <path fill="#1E282A" d="M54.507 28.215c.215 0 .441-.058.633-.192.54-.348.686-1.069.337-1.61-2.08-3.154-1.987-5.908.267-8.185.454-.453.448-1.191-.005-1.638-.454-.453-1.191-.453-1.645.005-3.05 3.074-3.247 7.013-.563 11.097.226.343.598.523.976.523" transform="translate(10.141)"/>
        </g>
        <g>
            <path fill="#1E282A" d="M5.193 6.827c-.413-.372-.506-.982-.221-1.458C7.557 1.029 11.653.07 11.827.029c.268-.063.547-.022.79.105 3.957 2.063 6.112 5.456 6.2 5.601.32.511.197 1.18-.285 1.545-2.208 1.662-3.312 8.024-1.44 14.827.475 1.737 1.492 4.619 3.438 7.233-.004-.577 1.998 3.24 8.157 5.258 3.745 1.226 10.748 1.452 14.815 1.452 7.043 0 14.281.771 13.92 1.563 1.174.349 2.167.796 2.957 1.383.047-.012.093-.024.146-.03l4.194-.569c.401-.052.796.105 1.052.419.099.122 2.428 3.015 2.341 6.768-.006.412-.232.79-.598.988l-2.62 1.452c-3.974 4.218-9.372 7.274-16.047 9.092-3.8 1.034-7.831 1.546-11.916 1.546-5.966 0-12.043-1.093-17.65-3.242C9.62 51.713 2.94 45.42.963 38.16c-3.735-13.706 4.468-23.153 6.362-25.105-.047-4.235-2.05-6.152-2.132-6.228z" transform="matrix(-1 0 0 1 69.982 18.263)"/>
            <path fill="#F1AA48" d="M20.096 53.165c8.993 3.45 19.247 4.043 28.125 1.62 6.32-1.719 11.398-4.606 15.082-8.569.081-.093.18-.168.29-.226l2.167-1.197c-.133-1.807-.958-3.329-1.446-4.084l-2.243.302c.099.226.186.47.256.72.18.616-.175 1.261-.79 1.435-.616.18-1.261-.174-1.441-.79-.924-3.213-6.896-3.532-15.93-4.02-4.16-.22-8.884-.477-14.182-1.063-7.291-.808-12.816-6.153-15.152-14.658-1.807-6.577-1.138-13.461 1.458-16.512-.743-.94-2.23-2.585-4.357-3.8-.848.291-2.916 1.192-4.526 3.452.715.935 1.778 2.754 2.115 5.525.343-.22.575-.349.604-.366.558-.308 1.261-.105 1.575.453.313.564.11 1.267-.448 1.58-.017.012-1.481.831-2.533 1.894-1.998 2.202-8.767 10.73-5.536 22.594 1.783 6.548 7.947 12.27 16.912 15.71z" transform="matrix(-1 0 0 1 69.982 18.263)"/>
        </g>
    </g>
</svg>
