<svg xmlns="http://www.w3.org/2000/svg" width="57" height="63" viewBox="0 0 57 63">
    <g fill="none" fill-rule="evenodd">
        <path fill="#F5F2E7" d="M23.022 26.056L33.468 26.056 33.468 13.246 23.022 13.246zM26.577 10.951L27.012 9.862 24.127 2.699 15.664 4.776 22.89 10.951 26.577 10.951M40.833 4.776L32.371 2.699 29.05 10.951 33.608 10.951 40.833 4.776"/>
        <path fill="#FF641E" d="M20.728 26.056v-12.81H3.764c-.808 0-1.47.66-1.47 1.47v9.87c0 .808.662 1.47 1.47 1.47h16.964"/>
        <path fill="#DE3F19" d="M5.724 28.35v30.396c0 .808.662 1.47 1.47 1.47H22.54V28.35H5.724"/>
        <path fill="#F5F2E7" d="M24.834 60.216L31.656 60.216 31.656 28.35 24.834 28.35z"/>
        <path fill="#DE3F19" d="M33.95 28.35v31.866h15.353c.81 0 1.47-.662 1.47-1.47V28.35H33.95"/>
        <path fill="#FF641E" d="M35.762 26.056h16.971c.81 0 1.47-.662 1.47-1.47v-9.87c0-.81-.66-1.47-1.47-1.47h-16.97v12.81"/>
        <path fill="#000" d="M2.294 24.586v-9.87c0-.81.662-1.47 1.47-1.47h16.964v12.81H3.764c-.808 0-1.47-.662-1.47-1.47zm13.37-19.81l8.463-2.077 2.885 7.163-.435 1.09H22.89l-7.226-6.176zm15.183 8.47h2.62v12.81H23.023v-12.81h7.825zM32.37 2.699l8.462 2.077-7.225 6.175H29.05L32.371 2.7zm20.362 10.547c.81 0 1.47.66 1.47 1.47v9.87c0 .808-.66 1.47-1.47 1.47h-16.97v-12.81h16.97zm-1.96 45.5c0 .808-.66 1.47-1.47 1.47H33.95V28.35h16.823v30.396zm-25.939 1.47h6.822V28.35h-6.822v31.866zm-2.294 0H7.194c-.808 0-1.47-.662-1.47-1.47V28.35H22.54v31.866zM7.194 62.51h42.11c2.068 0 3.756-1.696 3.756-3.764V28.319c1.921-.171 3.438-1.773 3.438-3.733v-9.87c0-2.077-1.688-3.765-3.765-3.765H37.14l8.587-7.334L30.986 0 28.25 6.798 25.51 0 10.772 3.617l8.587 7.334H3.764C1.688 10.951 0 12.64 0 14.716v9.87c0 1.96 1.517 3.562 3.438 3.733v30.427c0 2.068 1.688 3.764 3.756 3.764z"/>
    </g>
</svg>
