<svg xmlns="http://www.w3.org/2000/svg" width="18" height="18" viewBox="0 0 18 18">
    <g fill="none" fill-rule="evenodd">
        <g fill="#000" fill-rule="nonzero" stroke="#FFF" stroke-width=".25">
            <g>
                <g>
                    <g>
                        <path d="M14.563 2.75h-3.627c.475-.682.41-1.63-.199-2.238-.682-.682-1.792-.682-2.474 0C8.186.59 8.095.7 8 .887 7.905.7 7.814.59 7.737.512c-.682-.682-1.792-.682-2.474 0-.608.608-.674 1.556-.199 2.238H1.437C.645 2.75 0 3.394 0 4.187v1.125c0 .64.42 1.184 1 1.37v7.88C1 15.355 1.645 16 2.438 16h11.125c.792 0 1.437-.645 1.437-1.438v-7.88c.58-.186 1-.73 1-1.37V4.187c0-.793-.645-1.437-1.438-1.437zm-6.063 3h-1v-2h1v2zm.118-3.424c.154-.888.332-1.087.352-1.107.146-.146.338-.22.53-.22s.384.074.53.22c.293.293.293.768 0 1.06-.02.02-.217.197-1.099.352-.128.022-.253.04-.369.056.015-.113.034-.235.056-.36zM5.97 1.22c.146-.146.338-.22.53-.22s.384.074.53.22c.02.02.197.218.351 1.1.022.128.041.253.057.368-.113-.015-.236-.033-.361-.055-.888-.154-1.088-.332-1.107-.352-.293-.292-.293-.768 0-1.06h0zM1 4.187c0-.241.196-.437.438-.437H6.5v2H1.437c-.24 0-.437-.197-.437-.438V4.187zm1 10.375V6.75h4.5V15H2.437c-.24 0-.437-.197-.437-.438zM7.5 15V6.75h1V15h-1zm6.5-.438c0 .241-.196.438-.438.438H9.5V6.75H14v7.812zm1-9.25c0 .241-.196.438-.438.438H9.5v-2h5.063c.24 0 .437.196.437.437v1.125z" transform="translate(-1034 -541) translate(1034 124) translate(1 400) translate(0 18)"/>
                    </g>
                </g>
            </g>
        </g>
    </g>
</svg>
