<svg xmlns="http://www.w3.org/2000/svg" width="80" height="88" viewBox="0 0 80 88">
    <g fill="none" fill-rule="evenodd">
        <g>
            <path fill="#1E282A" d="M43.524.387c-.297-.062-.659-.118-1.105-.174-1.858-.231-3.86-.275-5.957-.128L11.835 2.139C4.89 2.056 0 5.615 0 10.744c0 1.972.706 5.147 2.018 7.148.08.122.164.372.164.466v26.963c0 .516.372.957.882 1.046l24.414 4.222c.52.107 1.046.16 1.566.16.308 0 .616-.018.924-.055 1.02-.123 2.644-.424 5.097-.879 4.285-.794 10.763-1.993 19.731-3.29 1.519-.22 2.708-1.648 2.708-3.251V20.62c0-.182.059-.336.154-.434 1.232-1.224 2.193-4.053 2.193-6.44 0-6.868-8.463-11.74-16.327-13.36" transform="translate(8 20)"/>
            <path fill="#B79164" d="M27.696 48.471l-23.39-4.045V18.358c0-.583-.255-1.239-.515-1.63-1.03-1.575-1.667-4.333-1.667-5.984 0-3.092 2.554-5.429 6.483-6.205l3.303-.275c1.184.022 2.416.163 3.663.42 7.705 1.587 14.464 7.612 14.464 12.893 0 1.968-.818 4.174-1.55 4.923-.478.481-.749 1.144-.78 1.832-.006.035-.011.07-.011.107v24.032" transform="translate(8 20)"/>
            <path fill="#9C734C" d="M54.494 44.423c-9.01 1.303-15.51 2.507-19.816 3.304-2.246.417-3.892.721-4.859.845V25.36l25.562-4.208v22.122c0 .534-.42 1.082-.887 1.15M56.161 18.683c-.069.067-.122.145-.18.218l-25.285 4.163c.86-1.43 1.465-3.603 1.465-5.487 0-5.439-5.496-11.282-12.621-13.95L36.62 2.203c1.949-.136 3.813-.096 5.538.12.383.047.696.096.935.145 8.618 1.775 14.633 6.413 14.633 11.28 0 1.988-.828 4.197-1.566 4.936M13.216 20.892c-.027-.064-.064-.128-.101-.18-.037-.06-.085-.118-.133-.166-.244-.244-.61-.36-.955-.286-.07.01-.139.032-.202.058-.064.027-.122.059-.18.096-.06.042-.112.085-.165.132-.048.048-.09.107-.128.165-.042.053-.074.117-.1.18-.027.064-.048.133-.06.202-.015.07-.02.138-.02.207 0 .277.111.553.308.75.053.047.106.095.164.132.059.037.117.069.18.095.064.027.134.048.203.064.069.01.138.021.207.021.276 0 .552-.116.748-.313.202-.196.314-.472.314-.749 0-.069-.006-.143-.022-.207-.016-.069-.032-.138-.058-.201M20.14 29.111c-.027-.064-.059-.127-.096-.18-.042-.059-.085-.117-.132-.165-.399-.393-1.11-.393-1.503 0-.048.048-.096.106-.133.165-.037.053-.069.116-.095.18-.027.064-.048.133-.064.197-.01.069-.021.143-.021.212 0 .276.116.552.313.749.196.196.472.313.749.313.28 0 .552-.117.754-.313.196-.197.307-.473.307-.75 0-.068-.005-.142-.02-.211-.011-.064-.033-.133-.06-.197M11.48 37.495c-.197.197-.308.467-.308.749 0 .281.111.552.308.754.201.196.472.308.754.308.069 0 .138-.006.207-.021.069-.011.132-.032.196-.059.064-.026.128-.058.186-.095.058-.043.112-.085.16-.133.047-.053.095-.106.132-.165.037-.058.074-.117.1-.18.027-.064.043-.133.06-.202.015-.07.02-.138.02-.207 0-.282-.11-.552-.313-.749-.393-.398-1.104-.393-1.502 0" transform="translate(8 20)"/>
        </g>
        <g>
            <path fill="#1E282A" d="M58.977 37.362c-.128-.242-.272-.472-.432-.686-.004-.008-.016-.016-.02-.029.838-2.001.801-4.348-.304-6.407-1.414-2.634-4.192-4.064-6.995-3.904-.012-.024-.02-.049-.033-.07-.546-.94-1.282-1.705-2.133-2.289.025-.065.045-.135.054-.21.185-1.787.176-3.612-.037-5.42-.613-5.272-2.848-10.093-6.469-13.956-.193-.329-.883-1.368-2.244-2.223-1.442-.904-3.97-1.78-7.787-.818C30.308.24 27.945-.261 24.57.134c-.094.008-.18.037-.267.078-.686.333-1.525.92-2.252 1.742-.041 0-.086-.004-.131.004-4.073.473-7.266 2.12-8.935 4.562-.657-.329-1.302-.46-1.754-.465-.157.009-.325.046-.46.136-.942.617-1.698 1.2-2.351 1.841-5.803 1.447-6.609 3.645-6.711 4.365C.296 16.075-.21 20.09.247 24.027.99 30.42 4.15 36.183 9.14 40.247c4.422 3.6 9.85 5.524 15.485 5.524.616 0 1.233-.03 1.853-.074.127.44.32.895.584 1.348.834 1.45 2.034 2.317 3.065 2.317.292 0 .572-.07.822-.217.004 0 .013-.005.017-.009.004-.004.004-.004.008-.004 4.258-2.65 7.599-3.604 10.159-3.715.029 1.196.337 2.371.904 3.432 1.377 2.56 4.01 4.019 6.736 4.019 1.216 0 2.449-.292 3.595-.908 2.487-1.336 4.024-3.913 4.02-6.732.086-.041.176-.074.259-.12 1.343-.722 2.33-1.927 2.77-3.39.44-1.463.283-3.012-.44-4.356" transform="matrix(-1 0 0 1 72 32)"/>
            <path fill="#3BAB48" d="M39.35 3.47c-.708-.012-1.48.087-2.245.4-.098.04-.193.09-.283.135-.029-.029-.058-.054-.095-.078-.67-.469-1.306-.904-1.931-1.303 2.067-.201 3.542.255 4.553.847" transform="matrix(-1 0 0 1 72 32)"/>
            <path fill="#A4CC69" d="M24.912 1.749c4.64-.506 6.999.83 10.492 3.259-.608.595-1.114 1.36-1.504 2.293-1.492.107-5.203.822-5.885 5.268-1.553.103-4.886.777-5.926 4.628-.76-.407-1.562-.588-2.297-.65-.013-.078-.037-.156-.074-.23-.732-1.414-.9-2.704-.497-3.838.127-.354.3-.67.5-.958.021-.024.038-.053.058-.082.905-1.237 2.285-1.85 2.302-1.858.415-.176.608-.653.435-1.068-1.742-4.22 1.698-6.378 2.396-6.764" transform="matrix(-1 0 0 1 72 32)"/>
            <path fill="#A4CC69" d="M20.885 3.779c-.547 1.27-.727 2.831-.148 4.656-.444.263-1.04.674-1.611 1.245-1.278-1.364-2.905-1.36-4.077-1.003-.21-.456-.468-.838-.756-1.159 1.217-1.845 3.55-3.164 6.592-3.74M11.437 7.724c.53.086 1.874.477 2.334 2.256.066.247.243.452.481.55.234.1.506.083.727-.044.202-.12 1.9-1.024 3.128.53-.165.28-.312.571-.428.896-.521 1.45-.394 3.033.362 4.701-.148.02-.288.045-.41.07-.843-1.266-1.94-2.096-3.276-2.47-1.878-.526-3.74.008-4.784.423-.542-1.11-1.315-1.849-2.178-2.33 1.097-2.15 2.071-3.255 4.044-4.582" transform="matrix(-1 0 0 1 72 32)"/>
            <path fill="#3BAB48" d="M5.852 11.718c-.547-.123-1.089-.176-1.607-.176.49-.378 1.245-.818 2.392-1.25-.267.436-.526.905-.785 1.426" transform="matrix(-1 0 0 1 72 32)"/>
            <path fill="#84BF42" d="M22.18 43.995c-.522-.131-7.747-2.063-8.096-10.085v-.02c-.013-.181-.276-4.492 3.353-4.915.448-.05.773-.46.72-.913-.054-.448-.453-.772-.913-.719-1.92.222-3.12 1.229-3.843 2.445-1.75-5.54-6.185-5.848-6.238-5.852-.452-.024-.834.32-.859.773-.029.452.317.838.769.867.205.016 5.017.427 5.367 8.408 0 .004 0 .008.004.013v.012c.185 4.072 1.96 6.789 3.916 8.56-2.207-.859-4.294-2.063-6.18-3.6-4.657-3.789-7.603-9.164-8.298-15.131-.415-3.563.017-7.2 1.241-10.546.448-.074 1.23-.156 2.063-.024 1.59.25 2.655 1.171 3.165 2.733.078.234.254.419.485.51.226.09.485.07.698-.05.025-.012 2.285-1.258 4.39-.662 1.072.304 1.947 1.052 2.6 2.224.194.34.597.501.97.382.021-.008 2.298-.695 3.983.333.99.6 1.627 1.705 1.894 3.287.074.444.493.744.941.674.017-.004 1.66-.242 2.898.752.891.72 1.393 1.924 1.495 3.584.03.452.424.801.872.768.452-.028.797-.415.768-.87-.131-2.15-.846-3.757-2.124-4.776-1.176-.937-2.54-1.122-3.379-1.13-.27-1.077-.71-1.973-1.31-2.676.291-1.828 1.183-3.086 2.67-3.715 1.246-.526 2.462-.435 2.475-.431.222.016.435-.054.604-.193.168-.144.271-.35.287-.572.14-1.972.974-3.328 2.474-4.023 1.18-.546 2.368-.493 2.376-.489.357.025.698-.201.822-.547.546-1.528 1.376-2.531 2.474-2.983 1.557-.641 3.275-.029 3.744.164 3.349 3.596 5.42 8.076 5.987 12.978.181 1.546.197 3.103.066 4.636-1.771-.662-3.79-.637-5.593.23-.066.029-.12.07-.173.111-1.853-.883-4.089-.9-6.02.136-1.562.842-2.709 2.24-3.218 3.94-.514 1.702-.333 3.502.51 5.064.751 1.405 1.972 2.474 3.451 3.045-1.458 2.158-4.17 4.57-9.098 6.822-.045.02-.086.05-.128.078l-.057.025c-.49.283-.777.793-.863 1.43-1.393.103-2.778.082-4.143-.062" transform="matrix(-1 0 0 1 72 32)"/>
            <path fill="#168A44" d="M28.484 46.223c-.637-1.106-.617-2.026-.485-2.17.012 0 .024-.004.04-.004.251 0 1.008.456 1.612 1.5.637 1.101.62 2.022.485 2.165v.004c-.218.05-1.015-.394-1.652-1.495M57.842 41.242c-.312 1.044-1.015 1.903-1.972 2.416-.588.317-1.245.485-1.907.49-.452 0-.818.37-.818.825.004.452.37.818.822.818h.004c.25-.004.502-.025.752-.057-.168 2.01-1.331 3.81-3.131 4.779-2.91 1.562-6.547.464-8.108-2.441-.428-.801-.67-1.69-.707-2.59.028 0 .057-.003.082-.007 1.767.205 3.041.826 3.883 1.417.37.26.884.169 1.143-.205.263-.37.173-.884-.201-1.142-.514-.362-1.168-.736-1.96-1.044 1.187-.76 2.26-2.035 2.658-4.069.09-.444-.201-.88-.645-.966-.444-.09-.88.202-.966.646-.583 2.959-2.901 3.583-3.929 3.71-2.708-.262-6.349.33-11.038 2.918-.09-.632-.333-1.327-.727-2.013-.374-.641-.814-1.167-1.282-1.554.435-.23.85-.456 1.253-.686.004-.004.012-.004.02-.008.021-.013 2.26-1.311 5.166-.571.44.115.888-.153.999-.592.11-.44-.152-.888-.592-.999-.707-.18-1.377-.263-2.005-.28 2.26-1.857 3.55-3.706 4.265-5.358.169-.239.387-.444.654-.584.71-.382 1.594-.28 2.198.255.342.3.86.267 1.16-.074.3-.341.27-.859-.07-1.159-.896-.789-2.121-1.06-3.251-.777.098-.608.127-1.167.115-1.648-.012-.452-.403-.821-.843-.797-.456.008-.813.386-.801.843.025.826-.103 1.898-.6 3.123-.078.123-.152.25-.218.386-.004 0-.008-.004-.008-.004-1.192-.415-2.178-1.253-2.774-2.363-.633-1.18-.768-2.531-.382-3.814.382-1.278 1.245-2.33 2.424-2.963 2.318-1.245 5.224-.476 6.613 1.755.238.387.748.502 1.134.263.382-.242.501-.748.259-1.134-.325-.522-.715-.982-1.15-1.38 2.243-.7 4.738.114 6.118 2.033-.46.14-.908.325-1.347.563-.79.424-1.488.974-2.076 1.644-.3.341-.263.86.074 1.16.341.3.863.266 1.163-.075.456-.522.999-.953 1.615-1.282 2.824-1.516 6.35-.452 7.866 2.367 1.516 2.823.452 6.35-2.367 7.866-.403.218-.55.715-.337 1.114.148.275.431.431.727.431.132 0 .263-.029.387-.094.974-.526 1.779-1.242 2.408-2.072.46.933.55 1.981.25 2.98" transform="matrix(-1 0 0 1 72 32)"/>
            <path fill="#145F36" d="M51.111 34.851c-.777-.46-1.718-.55-2.573-.254-.427.148-.653.616-.505 1.043.148.432.616.658 1.044.51.398-.14.838-.099 1.2.12.398.23.653.628.702 1.084.046.42.4.736.814.736.029 0 .062-.004.09-.009.453-.045.777-.452.728-.904-.103-.965-.662-1.832-1.5-2.326" transform="matrix(-1 0 0 1 72 32)"/>
            <path fill="#1E282A" d="M38.556 19.958c.152 0 .312-.04.448-.135.382-.247.485-.757.238-1.139-1.47-2.231-1.405-4.18.19-5.79.32-.32.316-.843-.005-1.16-.32-.32-.842-.32-1.163.005-2.157 2.174-2.297 4.96-.398 7.85.16.242.423.37.69.37" transform="matrix(-1 0 0 1 72 32)"/>
        </g>
        <g>
            <path fill="#1E282A" d="M23.73 16.831l-5.495-4.297V9.637c.935-.43 1.55-1.032 1.55-1.853V3.011c0-.05-.01-.099-.015-.147 0-.042.015-.083.015-.127 0-2.02-3.69-2.737-6.85-2.737C9.89 0 6.37.668 6.11 2.52c-.015.07-.025.142-.025.217v5.048c0 .821.615 1.423 1.55 1.853v2.896L2.14 16.83l-.075.066C.755 18.154 0 19.915 0 21.731v8.107c0 1.643.38 3.264 1.1 4.69 1.38 2.744 3.23 8.18.11 13.761C.42 49.702 0 51.397 0 53.194v21.132c0 .498.14.967.405 1.356.82 1.226 3.69 4.078 12.53 4.078 8.38 0 11.405-2.493 12.46-3.978.31-.431.47-.939.47-1.468V53.2c0-1.8-.415-3.498-1.205-4.91-3.12-5.583-1.27-11.019.11-13.762.715-1.425 1.095-3.047 1.095-4.69v-8.107c0-1.816-.75-3.578-2.06-4.834l-.075-.066" transform="translate(42)"/>
            <path fill="#ED9747" d="M2.25 31.882v-.002c-.165-.662-.25-1.348-.25-2.042v-7.295c2.315 1.427 6.735 2.095 10.935 2.095 4.195 0 8.615-.669 10.93-2.095v7.295c0 .687-.08 1.367-.24 2.023-1.055 1.121-5.245 2.248-10.695 2.248-5.545 0-9.57-1.12-10.68-2.227" transform="translate(42)"/>
            <path fill="#F2B277" d="M23.5 20.204c0 .567-3.295 2.434-10.565 2.434-7.275 0-10.565-1.867-10.565-2.434 0-.567 3.29-2.434 10.565-2.434 7.27 0 10.565 1.867 10.565 2.434" transform="translate(42)"/>
            <path fill="#D5D7D1" d="M8.085 7.623V4.775c.485.178 1.03.319 1.615.425v3.01c-.855-.185-1.405-.415-1.615-.587M11.7 8.39V5.435c.415.026.825.038 1.235.038.23 0 .46-.005.695-.013V8.39c0 .041.005.08.01.119-.23.008-.46.014-.705.014-.445 0-.86-.016-1.245-.043 0-.03.01-.058.01-.09M15.63 5.288c.78-.112 1.52-.28 2.155-.513v2.848c-.25.205-.995.496-2.155.69V5.288M12.935 2c2.315 0 3.905.408 4.58.737-.675.329-2.265.737-4.58.737s-3.91-.408-4.585-.737C9.025 2.408 10.62 2 12.935 2" transform="translate(42)"/>
            <path fill="#D3EAE7" d="M9.25 13.809c.24-.19.385-.48.385-.788v-2.785c1.045.197 2.205.286 3.3.286 1.095 0 2.25-.089 3.3-.286v2.785c0 .307.14.598.385.787l3.39 2.655c-2.13-.468-4.64-.693-7.075-.693-2.44 0-4.95.226-7.08.693l3.395-2.655" transform="translate(42)"/>
            <path fill="#ED9747" d="M23.765 74.623c-.52.736-2.85 3.136-10.83 3.136-8.1 0-10.37-2.443-10.87-3.192-.05-.074-.065-.172-.065-.24V53.21c2.235 1.224 6.28 1.977 10.93 1.977 3.97 0 8.455-.622 10.935-1.981v21.108c0 .112-.035.216-.1.309M23.59 50.977c-1.115 1.109-5.275 2.21-10.66 2.21-5.505 0-9.51-1.104-10.655-2.203.16-.617.385-1.196.68-1.719 3.18-5.687 1.875-11.184.455-14.509 2.33.85 5.725 1.353 9.52 1.353 3.31 0 6.97-.434 9.535-1.363-1.425 3.323-2.735 8.825.45 14.519.29.521.515 1.099.675 1.712" transform="translate(42)"/>
        </g>
        <g>
            <path fill="#FFDB93" d="M24.504 45.097c1.537-.221 2.593-1.642 2.372-3.173l-2.71-18.483c-.221-1.53-1.649-2.593-3.18-2.365-1.53.22-2.586 1.648-2.365 3.18l2.704 18.475c.227 1.531 1.647 2.593 3.18 2.366zm18.186-2.663V23.76c0-1.545-1.256-2.8-2.8-2.8-1.551 0-2.807 1.255-2.807 2.8v18.675c0 1.552 1.256 2.807 2.807 2.807 1.544 0 2.8-1.255 2.8-2.807zm17.676-18.179c.22-1.53-.834-2.958-2.366-3.18-1.53-.227-2.952.835-3.179 2.366l-2.703 18.483c-.227 1.531.834 2.952 2.365 3.173 1.53.227 2.952-.835 3.18-2.366l2.703-18.476zm14.172-9.648l-5.793 34.007c-.255 1.627-1.814 2.952-3.455 2.952H14.483c-1.64 0-3.2-1.325-3.462-2.952L5.235 14.607h69.303z" transform="translate(0 35)"/>
            <path fill="#FF8875" d="M78.739 5.248v5.621c0 2.062-1.677 3.738-3.738 3.738H4.773c-2.069 0-3.739-1.676-3.739-3.738v-5.62c0-2.063 1.67-3.739 3.74-3.739H75c2.061 0 3.738 1.676 3.738 3.738" transform="translate(0 35)"/>
            <path fill="#18252F" d="M65.29 52.6H14.483c-2.169 0-4.137-1.679-4.483-3.821L4.215 14.78l2.04-.348L12.04 48.44c.183 1.137 1.3 2.091 2.442 2.091H65.29c1.142 0 2.256-.952 2.433-2.078l5.795-34.02 2.04.348-5.793 34.007c-.33 2.095-2.337 3.812-4.475 3.812" transform="translate(0 35)"/>
            <path fill="#18252F" d="M21.4 22.08c-.086 0-.174.006-.262.019-.965.139-1.632 1.04-1.494 2.009l2.704 18.474c.141.946 1.038 1.632 2.004 1.492.474-.068.887-.314 1.169-.69.281-.378.399-.844.331-1.312l-2.71-18.481c-.124-.863-.873-1.512-1.742-1.512zm2.69 24.082c-1.882 0-3.51-1.41-3.789-3.279l-2.704-18.478c-.302-2.1 1.152-4.051 3.242-4.353.185-.028.374-.042.561-.042 1.89 0 3.52 1.412 3.79 3.284l2.71 18.48c.147 1.017-.11 2.027-.721 2.847-.613.82-1.511 1.353-2.528 1.499-.185.028-.374.042-.561.042zM39.89 21.993c-.977 0-1.773.792-1.773 1.766v18.675c0 .978.796 1.773 1.773 1.773.973 0 1.765-.795 1.765-1.773V23.76c0-.974-.792-1.766-1.765-1.766zm0 24.283c-2.118 0-3.842-1.724-3.842-3.842V23.76c0-2.115 1.724-3.835 3.842-3.835 2.114 0 3.834 1.72 3.834 3.835v18.675c0 2.118-1.72 3.842-3.834 3.842zM57.587 22.08c-.866 0-1.615.65-1.743 1.512l-2.703 18.482c-.069.467.048.93.329 1.308s.693.624 1.16.691c.093.013.18.02.267.02.865 0 1.614-.65 1.743-1.514l2.703-18.473c.138-.967-.53-1.868-1.49-2.007-.093-.013-.18-.02-.266-.02zm-2.69 24.082c-.187 0-.376-.014-.567-.043-1.01-.145-1.907-.679-2.52-1.501-.611-.822-.865-1.832-.715-2.845l2.703-18.481c.305-2.058 2.24-3.555 4.354-3.239 2.084.3 3.539 2.252 3.238 4.35L58.686 42.88c-.278 1.871-1.907 3.281-3.79 3.281zM4.773 2.545c-1.492 0-2.704 1.213-2.704 2.703v5.621c0 1.49 1.212 2.703 2.704 2.703h70.228c1.49 0 2.703-1.213 2.703-2.703v-5.62c0-1.491-1.213-2.704-2.703-2.704H4.773zM75.001 15.64H4.773C2.141 15.641 0 13.501 0 10.87v-5.62C0 2.616 2.14.475 4.773.475h70.228c2.63 0 4.772 2.14 4.772 4.772v5.621c0 2.632-2.141 4.772-4.772 4.772z" transform="translate(0 35)"/>
        </g>
    </g>
</svg>
