<svg xmlns="http://www.w3.org/2000/svg" width="48" height="82" viewBox="0 0 48 82">
    <g fill="none" fill-rule="evenodd">
        <path fill="#FFF" d="M21.333 68C25.773 68 28 65.947 28 61.333c0-4.613-6.667-14.666-6.667-14.666s-6.666 10.053-6.666 14.666c0 4.614 2.213 6.667 6.666 6.667zm-16 5.333h32v-32h-32v32zM12 29.333L30.667 29.333 30.667 18.667 12 18.667zM24 6.467v6.866h-5.333V6.44c.813.133 1.72.227 2.666.227.747 0 1.64-.08 2.667-.2" transform="translate(1 1)"/>
        <path fill="#8FF3AD" d="M21.333 6.667c-.946 0-1.853-.094-2.666-.227-2.347-.373-4-1.107-4-1.107v-4s3 1.334 6.666 1.334c3.12 0 10.334-2.667 16-2.667 3.894 0 8 2.667 8 2.667l-2.666 4S39.893 5.333 36 5.333c-4.32 0-8.76.774-12 1.134-1.027.12-1.92.2-2.667.2M18.667 13.333L26.667 13.333 26.667 18.667 16 18.667 16 13.333 18.667 13.333M42.667 39.133V76c0 2.213-1.787 4-4 4H4c-2.213 0-4-1.787-4-4V39.133c0-1.933 1.053-3.72 2.747-4.653L12 29.333h18.667l9.253 5.147c1.693.933 2.747 2.72 2.747 4.653zm-37.334 34.2h32v-32h-32v32z" transform="translate(1 1)"/>
        <path fill="#8FF3AD" d="M14.667 61.333c0-4.613 6.666-14.666 6.666-14.666S28 56.72 28 61.333C28 65.947 25.773 68 21.333 68c-4.453 0-6.666-2.053-6.666-6.667" transform="translate(1 1)"/>
        <path stroke="#303E58" stroke-linecap="round" stroke-linejoin="round" stroke-width="2" d="M12 29.333L2.747 34.48C1.053 35.413 0 37.2 0 39.133V76c0 2.213 1.787 4 4 4h34.667c2.213 0 4-1.787 4-4V39.133c0-1.933-1.054-3.72-2.747-4.653l-9.253-5.147H12zm0 0h18.667V18.667H12v10.666zm14.667-10.666v-5.334H16v1.334l10.667 4zm-2.65-5.334V6.467v6.866zm-5.334 0V6.44v6.893zm-.016-6.893c-2.347-.373-4-1.107-4-1.107v-4s3 1.334 6.666 1.334c3.12 0 10.334-2.667 16-2.667 3.894 0 8 2.667 8 2.667l-2.666 4S39.893 5.333 36 5.333c-4.32 0-8.76.774-12 1.134-1.027.12-1.92.2-2.667.2-.946 0-1.853-.094-2.666-.227zM5.333 46.667v26.666h32v-32h-32v5.334zm16 0S28 56.72 28 61.333C28 65.947 25.773 68 21.333 68c-4.453 0-6.666-2.053-6.666-6.667 0-4.613 6.666-14.666 6.666-14.666z" transform="translate(1 1)"/>
        <path stroke="#FFF" stroke-linecap="round" stroke-linejoin="round" stroke-width="2" d="M18.493 61.533c.107.587.414 1.12.854 1.52.48.414 1.08.652 1.693.68" transform="translate(1 1)"/>
    </g>
</svg>
