<svg xmlns="http://www.w3.org/2000/svg" width="12" height="16" viewBox="0 0 12 16">
    <g>
        <path d="M5.625 0C2.523 0 0 2.523 0 5.625c0 1.048.29 2.07.84 2.958l4.465 7.195c.085.138.236.222.398.222h.004c.163-.001.314-.088.398-.228l4.352-7.265c.519-.869.793-1.865.793-2.882C11.25 2.523 8.727 0 5.625 0zm4.027 8.026L5.696 14.63l-4.06-6.542C1.18 7.35.931 6.499.931 5.625.931 3.04 3.041.931 5.625.931c2.585 0 4.69 2.11 4.69 4.694 0 .848-.231 1.678-.663 2.4z"/>
        <path d="M5.625 2.813c-1.55 0-2.813 1.261-2.813 2.812 0 1.54 1.242 2.813 2.813 2.813 1.59 0 2.813-1.289 2.813-2.813 0-1.55-1.262-2.813-2.813-2.813zm0 4.693c-1.04 0-1.881-.845-1.881-1.881 0-1.034.847-1.881 1.881-1.881s1.878.847 1.878 1.881c0 1.021-.822 1.881-1.878 1.881z"/>
    </g>
</svg>
