<svg xmlns="http://www.w3.org/2000/svg" width="16" height="16" viewBox="0 0 16 16">
    <g fill="none" fill-rule="evenodd">
        <g fill="#000" fill-rule="nonzero">
            <g>
                <g>
                    <path d="M7.973 14.645h-5.98c-.366 0-.664-.298-.664-.665V2.02c0-.367.298-.665.664-.665h5.98c.368 0 .665-.296.665-.664 0-.367-.297-.664-.665-.664h-5.98C.894.027 0 .92 0 2.02v11.96c0 1.1.894 1.993 1.993 1.993h5.98c.368 0 .665-.297.665-.664 0-.367-.297-.664-.665-.664z" transform="translate(-1035 -723) translate(1034 124) translate(1 599)"/>
                    <path d="M15.802 7.527l-4.04-3.987c-.26-.258-.682-.254-.94.007-.257.261-.255.682.007.94l2.887 2.849H5.98c-.367 0-.664.297-.664.664 0 .367.297.664.664.664h7.736l-2.887 2.85c-.262.257-.264.678-.006.94.13.13.301.197.473.197.168 0 .337-.064.466-.191l4.04-3.987C15.928 8.348 16 8.178 16 8s-.071-.348-.198-.473z" transform="translate(-1035 -723) translate(1034 124) translate(1 599)"/>
                </g>
            </g>
        </g>
    </g>
</svg>
