<svg xmlns="http://www.w3.org/2000/svg" width="53" height="53" viewBox="0 0 53 53">
    <g fill="none" fill-rule="evenodd">
        <g fill="#000">
            <g>
                <g>
                    <g>
                        <path d="M39.75 28.156c0 .916.742 1.657 1.656 1.657.915 0 1.657-.74 1.657-1.657v-13.25c0-.914-.742-1.656-1.657-1.656-.914 0-1.656.742-1.656 1.656v13.25zm9.938 15.735l-9.938-7.453-13.25 9.937-13.25-4.969-9.938 6.211V14.492l9.938-6.21L26.5 13.25l13.25-9.938 9.938 7.454V43.89zM39.75 0L26.5 9.938l-13.25-4.97L0 13.25V53l13.25-8.281 13.25 4.968 13.25-9.937L53 49.688V9.938L39.75 0zM28.156 21.531c-.914 0-1.656.742-1.656 1.657v9.937c0 .916.742 1.656 1.656 1.656.915 0 1.657-.74 1.657-1.656v-9.938c0-.914-.742-1.656-1.657-1.656zm-13.25-4.968c-.914 0-1.656.742-1.656 1.656V34.78c0 .916.742 1.657 1.656 1.657.914 0 1.656-.74 1.656-1.657V18.22c0-.915-.742-1.657-1.656-1.657z" transform="translate(-111 -1177) translate(0 1024) translate(111 145) translate(0 8)"/>
                    </g>
                </g>
            </g>
        </g>
    </g>
</svg>
