<svg xmlns="http://www.w3.org/2000/svg" width="65" height="79" viewBox="0 0 65 79">
    <g fill="none" fill-rule="evenodd">
        <path fill="#283954" d="M64.381 43.593c-.76-.467-1.376-1.101-1.817-1.827.441.726 1.057 1.36 1.817 1.827m-1.867-1.91c-.5-.852-.767-1.826-.768-2.823 0 .997.269 1.971.768 2.824m-.768-2.824c0-.812.18-1.64.559-2.415-.379.775-.559 1.603-.559 2.415M61.746 69.465c0-.813.18-1.64.559-2.416-.379.775-.559 1.603-.559 2.416"/>
        <path fill="#D8E8EF" d="M28.276 21.291L53.321 21.291 53.321 13.365 28.276 13.365z"/>
        <path fill="#344966" d="M53.321 21.291L53.321 20.249 29.318 20.249 29.318 14.407 52.28 14.407 52.28 21.291 53.321 21.291 53.321 20.249 53.321 21.291 54.363 21.291 54.363 12.323 27.234 12.323 27.234 22.332 54.363 22.332 54.363 21.291 53.321 21.291"/>
        <path fill="#FFF" d="M49.834 77.008H32.397c-5.23 0-9.51-4.28-9.51-9.51v-40.58c0-5.231 4.28-9.51 9.51-9.51h17.437c5.231 0 9.51 4.279 9.51 9.51v40.58c0 5.23-4.279 9.51-9.51 9.51"/>
        <path fill="#18252F" d="M49.834 77.008v-1.041H32.397c-2.328 0-4.44-.95-5.98-2.489-1.538-1.54-2.488-3.652-2.489-5.98v-40.58c0-2.328.95-4.44 2.49-5.98 1.539-1.539 3.651-2.489 5.98-2.489h17.436c2.328 0 4.441.95 5.98 2.488 1.54 1.54 2.49 3.653 2.49 5.981v40.58c0 2.328-.95 4.44-2.49 5.98-1.539 1.538-3.651 2.488-5.98 2.489v2.083c5.81-.004 10.549-4.742 10.552-10.553V26.918c-.003-5.81-4.741-10.549-10.552-10.552H32.397c-5.81.003-10.548 4.741-10.552 10.552v40.58c.004 5.81 4.742 10.548 10.552 10.552h17.437v-1.042"/>
        <path fill="#FFF" d="M55.461 14.395H26.93c-.349 0-.634-.285-.634-.634V2.348c0-.349.285-.634.634-.634H55.46c.349 0 .634.285.634.634v11.413c0 .349-.285.634-.634.634"/>
        <path fill="#18252F" d="M55.461 14.395v-1.041H26.93v.407h.407c-.004-.23-.176-.403-.407-.407v.407h.407V2.348h-.407v.408c.23-.004.403-.176.407-.408h-.407v.408H55.46v-.408h-.407c.004.232.176.404.407.408v-.408h-.407v11.413h.407v-.407c-.23.004-.403.176-.407.407h.407v-.407 2.083c.93-.004 1.672-.747 1.676-1.676V2.348C57.133 1.42 56.39.677 55.461.672H26.93c-.929.005-1.672.748-1.676 1.676v11.413c.004.93.747 1.672 1.676 1.676H55.46v-1.042"/>
        <path fill="#49ADEA" d="M22.886 60.277L59.345 60.277 59.345 29.683 22.886 29.683z"/>
        <path fill="#18252F" d="M59.345 60.277L59.345 59.235 23.928 59.235 23.928 30.724 58.303 30.724 58.303 60.277 59.345 60.277 59.345 59.235 59.345 60.277 60.386 60.277 60.386 28.641 21.845 28.641 21.845 61.319 60.386 61.319 60.386 60.277 59.345 60.277"/>
        <path fill="#FFF" d="M51.096 41.451L44.934 41.451 44.934 34.386 36.561 34.386 36.561 41.451 30.398 41.451 30.398 48.515 36.561 48.515 36.561 55.573 44.934 55.573 44.934 48.515 51.096 48.515 51.096 41.451"/>
        <path fill="#49ADEA" d="M29.27 11.905L32.67 11.905 32.67 4.092 29.27 4.092zM36.011 11.905L39.411 11.905 39.411 4.092 36.011 4.092zM42.753 11.905L46.152 11.905 46.152 4.092 42.753 4.092zM49.494 11.905L52.893 11.905 52.893 4.092 49.494 4.092z"/>
        <path fill="#C2C8D1" d="M27.839 77.008H14.228c.993-1.033 1.604-2.437 1.604-3.985v-9.685h1.963c1.286.771 2.636 1.474 4.05 2.114v2.045c.003 4.18 2.455 7.805 5.994 9.511"/>
        <path fill="#99B8C6" d="M21.845 65.452c-1.414-.64-2.764-1.343-4.05-2.114h4.05v2.114"/>
        <path fill="#283954" d="M30.142 77.805H15.414c-.628 0-1.237-.08-1.817-.23.224-.173.435-.362.63-.567H27.84c.726.35 1.497.62 2.303.797"/>
        <path fill="#283954" d="M43.126 77.805H30.142c-.806-.177-1.577-.446-2.303-.797-3.539-1.706-5.991-5.33-5.994-9.51v-4.16h2.083v4.16c0 2.328.95 4.44 2.49 5.98 1.539 1.538 3.651 2.488 5.98 2.489h15.547c-1.28 1.143-2.968 1.838-4.819 1.838"/>
        <path fill="#C2C8D1" d="M11.264 76.497c-1.237-.868-2.19-2.113-2.692-3.569h2.047v-7.773c.879-.778 1.948-1.346 3.13-1.625v9.493c-.001 1.017-.41 1.928-1.075 2.595-.394.393-.874.697-1.41.88"/>
        <path fill="#283954" d="M13.597 77.575c-.848-.22-1.636-.589-2.333-1.078.536-.182 1.016-.486 1.41-.88.666-.666 1.074-1.577 1.074-2.594V63.53c.535-.125 1.093-.192 1.666-.192h.418v9.685c0 1.548-.61 2.952-1.604 3.985-.196.205-.407.394-.631.567"/>
        <path fill="#3788C0" d="M8.535 70.845h-.35c-.003-.09-.005-.182-.005-.274 0-.784.125-1.538.355-2.245v2.519"/>
        <path fill="#283954" d="M10.62 72.928H8.571c-.226-.657-.36-1.357-.387-2.083h.35v-2.52c.404-1.236 1.132-2.327 2.084-3.17v7.773m-1.042-1.042v-1.041 1.04"/>
        <path fill="#49ADEA" d="M36.579 77.805H8.866c-3.995 0-7.234-3.238-7.234-7.234 0-3.994 3.24-7.233 7.234-7.233H36.58c3.995 0 7.233 3.239 7.233 7.233 0 3.996-3.238 7.234-7.233 7.234"/>
        <path fill="#344966" d="M36.579 77.805v-1.041H8.866c-1.713-.001-3.255-.692-4.378-1.814-1.122-1.124-1.814-2.665-1.814-4.379 0-1.713.692-3.254 1.814-4.378 1.123-1.122 2.665-1.813 4.378-1.813H36.58c1.713 0 3.254.69 4.378 1.813 1.122 1.124 1.813 2.665 1.814 4.378 0 1.714-.692 3.255-1.814 4.379-1.124 1.122-2.665 1.813-4.378 1.814v2.083c4.57 0 8.274-3.705 8.275-8.276 0-4.57-3.705-8.274-8.275-8.275H8.866c-4.57 0-8.274 3.705-8.275 8.275 0 4.571 3.704 8.275 8.275 8.276H36.58v-1.042"/>
        <path fill="#FFF" d="M16.274 77.466L29.171 77.466 29.171 63.338 16.274 63.338z"/>
        <path fill="#344966" d="M29.171 77.466L29.171 76.424 17.316 76.424 17.316 64.38 28.129 64.38 28.129 77.466 29.171 77.466 29.171 76.424 29.171 77.466 30.212 77.466 30.212 62.296 15.233 62.296 15.233 78.507 30.212 78.507 30.212 77.466 29.171 77.466"/>
        <path fill="#344966" d="M21.102 67.668c0 .595-.483 1.078-1.078 1.078-.595 0-1.078-.483-1.078-1.078 0-.596.483-1.078 1.078-1.078.595 0 1.078.482 1.078 1.078M21.096 73.476c0 .595-.482 1.078-1.078 1.078-.595 0-1.077-.483-1.077-1.078 0-.596.482-1.079 1.077-1.079.596 0 1.078.483 1.078 1.079M26.833 67.668c0 .595-.482 1.078-1.078 1.078-.596 0-1.078-.483-1.078-1.078 0-.596.482-1.078 1.078-1.078.596 0 1.078.482 1.078 1.078M23.968 70.512c0 .595-.483 1.078-1.078 1.078-.596 0-1.079-.483-1.079-1.078 0-.595.483-1.078 1.079-1.078.595 0 1.078.483 1.078 1.078M26.828 73.476c0 .595-.483 1.078-1.079 1.078-.595 0-1.078-.483-1.078-1.078 0-.596.483-1.079 1.078-1.079.596 0 1.079.483 1.079 1.079M33.45 67.668c0 .595-.482 1.078-1.078 1.078-.595 0-1.078-.483-1.078-1.078 0-.596.483-1.078 1.078-1.078.596 0 1.079.482 1.079 1.078M33.445 73.476c0 .595-.483 1.078-1.078 1.078-.596 0-1.078-.483-1.078-1.078 0-.596.482-1.079 1.078-1.079.595 0 1.078.483 1.078 1.079M39.181 67.668c0 .595-.483 1.078-1.078 1.078-.595 0-1.077-.483-1.077-1.078 0-.596.482-1.078 1.077-1.078s1.078.482 1.078 1.078M36.316 70.512c0 .595-.483 1.078-1.078 1.078-.595 0-1.078-.483-1.078-1.078 0-.595.483-1.078 1.078-1.078.595 0 1.078.483 1.078 1.078M39.176 73.476c0 .595-.483 1.078-1.078 1.078-.595 0-1.078-.483-1.078-1.078 0-.596.483-1.079 1.078-1.079.595 0 1.078.483 1.078 1.079M8.103 67.668c0 .595-.483 1.078-1.078 1.078-.595 0-1.078-.483-1.078-1.078 0-.596.483-1.078 1.078-1.078.595 0 1.078.482 1.078 1.078M8.097 73.476c0 .595-.482 1.078-1.077 1.078-.596 0-1.078-.483-1.078-1.078 0-.596.482-1.079 1.078-1.079.595 0 1.077.483 1.077 1.079M13.834 67.668c0 .595-.482 1.078-1.078 1.078-.595 0-1.078-.483-1.078-1.078 0-.596.483-1.078 1.078-1.078.596 0 1.078.482 1.078 1.078M10.969 70.512c0 .595-.483 1.078-1.078 1.078-.596 0-1.079-.483-1.079-1.078 0-.595.483-1.078 1.079-1.078.595 0 1.078.483 1.078 1.078M13.829 73.476c0 .595-.483 1.078-1.078 1.078-.596 0-1.079-.483-1.079-1.078 0-.596.483-1.079 1.079-1.079.595 0 1.078.483 1.078 1.079"/>
    </g>
</svg>
