<svg xmlns="http://www.w3.org/2000/svg" width="16" height="16" viewBox="0 0 16 16">
    <g fill="none" fill-rule="evenodd">
        <g fill="#000" fill-rule="nonzero">
            <g>
                <g>
                    <path d="M14.595 8.191c-.064-.131-.064-.282 0-.413l.596-1.219c.331-.678.069-1.487-.598-1.84l-1.198-.636c-.13-.069-.218-.19-.243-.335l-.235-1.336c-.13-.743-.818-1.243-1.566-1.137l-1.343.19c-.144.02-.288-.027-.393-.128L8.64.394c-.542-.525-1.393-.525-1.935 0l-.975.943c-.105.101-.248.148-.393.128l-1.343-.19c-.748-.106-1.436.394-1.566 1.137l-.234 1.336c-.026.144-.114.266-.243.335l-1.198.635c-.667.354-.93 1.163-.599 1.841L.75 7.778c.064.131.064.282 0 .413L.154 9.41c-.331.678-.068 1.487.599 1.84l1.198.636c.129.069.217.19.243.335l.234 1.336c.119.677.7 1.152 1.366 1.151.066 0 .133-.004.2-.014l1.343-.19c.145-.02.288.027.393.128l.975.943c.271.263.62.394.968.394s.696-.131.967-.394l.975-.943c.105-.101.249-.148.393-.128l1.343.19c.748.106 1.436-.394 1.566-1.137l.235-1.336c.025-.144.113-.266.243-.335l1.198-.635c.667-.354.93-1.163.598-1.841l-.596-1.219zm-.434 2.246l-1.198.636c-.382.202-.644.563-.719.989l-.234 1.335c-.044.252-.277.421-.53.385l-1.343-.19c-.428-.06-.851.078-1.162.378L8 14.913c-.184.178-.471.178-.655 0l-.975-.943c-.262-.254-.606-.392-.964-.392-.066 0-.132.005-.198.014l-1.343.19c-.253.036-.486-.133-.53-.385l-.234-1.335c-.075-.426-.337-.787-.719-.99l-1.198-.635c-.226-.12-.314-.393-.202-.623l.595-1.218c.19-.389.19-.834 0-1.223L.982 6.155c-.112-.23-.024-.503.202-.623l1.198-.636c.382-.202.644-.563.719-.989l.234-1.336c.044-.251.277-.42.53-.384l1.343.19c.428.06.852-.078 1.162-.378l.975-.943c.184-.178.471-.178.655 0l.975.943c.31.3.734.438 1.162.377l1.343-.19c.253-.035.486.134.53.385l.234 1.336c.075.426.337.787.719.99l1.198.635c.226.12.314.393.202.623l-.595 1.218c-.19.389-.19.834 0 1.223l.595 1.218c.113.23.024.503-.202.623z" transform="translate(-1035 -482) translate(1034 124) translate(1 358)"/>
                    <path d="M11.037 4.62c-.18-.18-.471-.18-.65 0l-6.08 6.078c-.18.18-.18.471 0 .651.09.09.208.135.326.135.118 0 .236-.045.326-.135l6.078-6.078c.18-.18.18-.472 0-.651zM5.83 3.84c-.93 0-1.688.757-1.688 1.688 0 .931.757 1.689 1.689 1.689.93 0 1.688-.758 1.688-1.689 0-.93-.757-1.688-1.688-1.688zm0 2.456c-.423 0-.767-.344-.767-.768 0-.423.344-.767.768-.767.423 0 .767.344.767.767 0 .424-.344.768-.767.768zM9.515 8.752c-.931 0-1.689.757-1.689 1.689 0 .93.758 1.688 1.689 1.688.93 0 1.688-.757 1.688-1.688 0-.932-.757-1.689-1.688-1.689zm0 2.456c-.424 0-.768-.344-.768-.767 0-.424.344-.768.768-.768.423 0 .767.344.767.768 0 .423-.344.767-.767.767z" transform="translate(-1035 -482) translate(1034 124) translate(1 358)"/>
                </g>
            </g>
        </g>
    </g>
</svg>
