<svg xmlns="http://www.w3.org/2000/svg" width="80" height="68" viewBox="0 0 80 68">
    <g fill="none" fill-rule="evenodd">
        <path fill="#C49E78" d="M53.935 3.111c-7.099 2.4-10.907 10.1-8.507 17.2l6.743 19.942c2.4 7.098 10.1 10.907 17.198 8.507 7.099-2.4 10.906-10.1 8.507-17.199l-6.743-19.943C68.733 4.52 61.034.712 53.935 3.111M26.034 3.111c7.098 2.4 10.907 10.1 8.507 17.2l-6.742 19.942C25.4 47.35 17.7 51.16 10.6 48.76 3.502 46.36-.308 38.66 2.094 31.56l6.742-19.943c2.4-7.098 10.1-10.906 17.199-8.507"/>
        <path fill="#FFFFFE" d="M64.777 25.936c0-13.568-11-24.566-24.567-24.566S15.645 12.368 15.645 25.936c0 6.678 2.665 12.734 6.989 17.163v8.363c0 9.706 7.87 15.006 17.576 15.006 9.707 0 17.577-5.3 17.577-15.006v-8.364c4.324-4.428 6.99-10.484 6.99-17.162"/>
        <path fill="#C49E78" d="M35.259 19.392l-3.306-16.6C22.45 6.185 15.645 15.266 15.645 25.937c0 6.678 2.665 12.734 6.989 17.163 0 0 15.796-.888 12.625-23.707M48.435 2.793l-3.305 16.6C41.96 42.21 57.754 43.098 57.754 43.098c4.327-4.429 6.99-10.485 6.99-17.163 0-10.67-6.802-19.752-16.309-23.143"/>
        <path fill="#2C2018" d="M26.745 27.82c-2.327 0-4.214 1.886-4.214 4.214 0 2.328 1.887 4.215 4.214 4.215 2.327 0 4.216-1.887 4.216-4.215s-1.889-4.215-4.216-4.215M53.88 27.82c-2.326 0-4.214 1.886-4.214 4.214 0 2.328 1.888 4.215 4.214 4.215 2.328 0 4.214-1.887 4.214-4.215s-1.886-4.215-4.214-4.215M48.538 48.027c0-4.177-4.025-4.928-8.2-4.928-4.179 0-8.202.751-8.202 4.928 0 3.613 3.01 8.174 6.527 9.34v1.825c-1.516-.207-2.962-.756-4.243-1.62-.625-.423-1.477-.258-1.902.37-.422.625-.258 1.477.37 1.902 2.114 1.428 4.586 2.183 7.146 2.183 2.635 0 5.166-.796 7.32-2.303.62-.434.77-1.288.336-1.908-.432-.62-1.287-.772-1.908-.337-1.312.918-2.806 1.5-4.377 1.713v-1.658c3.77-.809 7.133-5.686 7.133-9.507"/>
        <path fill="#2C2018" d="M75.956 41.315c-1.444 2.92-3.938 5.103-7.026 6.147-1.269.428-2.583.646-3.906.646-2.006 0-3.973-.496-5.742-1.439v-3.022c4.515-4.821 6.99-11.087 6.99-17.71 0-3.503-.684-6.899-2.038-10.097-1.307-3.09-3.175-5.862-5.557-8.244-1.234-1.233-2.573-2.329-4.006-3.28 1.177-.365 2.39-.553 3.61-.553 5.234 0 9.878 3.334 11.553 8.295L76.578 32c1.045 3.086.822 6.395-.622 9.315zm-19.023.825c-.25.257-.39.6-.39.958v3.714c-.08.176-.128.37-.128.571v4.079c0 4.17-1.6 7.653-4.63 10.072-2.868 2.287-6.952 3.55-11.513 3.562-4.556-.012-8.64-1.275-11.509-3.562-3.03-2.419-4.63-5.902-4.63-10.072v-8.363c0-.36-.142-.702-.39-.958-4.258-4.358-6.6-10.113-6.6-16.205 0-6.196 2.411-12.021 6.793-16.402C28.3 5.169 34.097 2.759 40.265 2.741c3.722.009 7.416.918 10.69 2.633.12.063.25.106.386.13 1.959 1.06 3.776 2.41 5.397 4.03 4.382 4.38 6.794 10.206 6.794 16.402 0 6.092-2.343 11.847-6.599 16.204zm-35.541 4.12c-1.943 1.21-4.16 1.849-6.444 1.849-1.325 0-2.641-.219-3.91-.647-3.085-1.044-5.58-3.226-7.027-6.147-1.443-2.92-1.664-6.229-.619-9.315l6.74-19.942c1.678-4.961 6.322-8.295 11.555-8.295 1.325 0 2.64.218 3.908.646.059.02.115.043.173.064-1.344.915-2.604 1.957-3.77 3.123-2.381 2.382-4.251 5.155-5.558 8.244-1.353 3.198-2.038 6.594-2.038 10.096 0 6.624 2.477 12.89 6.99 17.71v2.614zm57.782-15.138L72.43 11.18C70.377 5.104 64.69 1.023 58.281 1.023c-1.625 0-3.233.266-4.785.79-.636.215-1.257.474-1.858.772-.397-.192-.798-.375-1.207-.547C47.236.685 43.836 0 40.337 0h-.127c-4.023 0-8.016.941-11.593 2.729-.687-.36-1.407-.666-2.143-.916-1.553-.524-3.163-.79-4.787-.79-6.41 0-12.095 4.081-14.15 10.157L.794 31.122c-1.276 3.78-1.008 7.832.761 11.408 1.77 3.576 4.827 6.25 8.606 7.528 1.552.524 3.162.791 4.787.791 2.198 0 4.344-.48 6.316-1.404v2.017c0 5.033 1.959 9.257 5.663 12.213 1.706 1.363 3.74 2.413 6.037 3.122 2.24.69 4.676 1.041 7.246 1.041l.062-.001.065.001c2.57 0 5.008-.35 7.246-1.041 2.298-.71 4.33-1.759 6.037-3.122 3.706-2.956 5.662-7.18 5.662-12.213v-1.764c1.815.755 3.763 1.151 5.742 1.151 1.624 0 3.232-.267 4.785-.791 3.779-1.278 6.835-3.952 8.604-7.528 1.769-3.576 2.04-7.629.761-11.408z"/>
    </g>
</svg>
