<svg xmlns="http://www.w3.org/2000/svg" width="24" height="24" viewBox="0 0 24 24">
    <g fill="#00B246">
        <path d="M12 22C6.486 22 2 17.514 2 12S6.486 2 12 2s10 4.486 10 10-4.486 10-10 10zm0-18.5c-4.687 0-8.5 3.813-8.5 8.5 0 4.687 3.813 8.5 8.5 8.5 4.687 0 8.5-3.813 8.5-8.5 0-4.687-3.813-8.5-8.5-8.5z"/>
        <path d="M12 5c-.414 0-.75-.336-.75-.75V.75c0-.414.336-.75.75-.75s.75.336.75.75v3.5c0 .414-.336.75-.75.75zM23.25 12.75h-3.5c-.414 0-.75-.336-.75-.75s.336-.75.75-.75h3.5c.414 0 .75.336.75.75s-.336.75-.75.75zM12 24c-.414 0-.75-.336-.75-.75v-3.5c0-.414.336-.75.75-.75s.75.336.75.75v3.5c0 .414-.336.75-.75.75zM4.25 12.75H.75c-.414 0-.75-.336-.75-.75s.336-.75.75-.75h3.5c.414 0 .75.336.75.75s-.336.75-.75.75zM12 15c-1.654 0-3-1.346-3-3s1.346-3 3-3 3 1.346 3 3-1.346 3-3 3zm0-4.5c-.827 0-1.5.673-1.5 1.5s.673 1.5 1.5 1.5 1.5-.673 1.5-1.5-.673-1.5-1.5-1.5z"/>
    </g>
</svg>
