<svg xmlns="http://www.w3.org/2000/svg" width="16" height="18" viewBox="0 0 16 18">
    <g fill="none" fill-rule="evenodd">
        <g fill="#000" fill-rule="nonzero">
            <g>
                <g>
                    <path d="M13.254 5.447c-1.501 0-2.724-1.222-2.724-2.724C10.53 1.222 11.753 0 13.254 0c1.501 0 2.723 1.222 2.723 2.723 0 1.502-1.222 2.724-2.723 2.724zm0-4.358c-.9 0-1.634.733-1.634 1.634 0 .902.733 1.634 1.634 1.634.9 0 1.634-.732 1.634-1.634 0-.9-.734-1.634-1.634-1.634zM13.254 17.43c-1.501 0-2.724-1.222-2.724-2.724 0-1.501 1.223-2.723 2.724-2.723 1.501 0 2.723 1.222 2.723 2.723 0 1.502-1.222 2.724-2.723 2.724zm0-4.358c-.9 0-1.634.733-1.634 1.634 0 .902.733 1.634 1.634 1.634.9 0 1.634-.732 1.634-1.634 0-.9-.734-1.634-1.634-1.634zM2.723 11.438C1.223 11.438 0 10.217 0 8.715 0 7.213 1.222 5.99 2.723 5.99c1.502 0 2.724 1.222 2.724 2.724 0 1.502-1.222 2.723-2.724 2.723zm0-4.357c-.9 0-1.634.733-1.634 1.634 0 .901.734 1.634 1.634 1.634.9 0 1.634-.733 1.634-1.634 0-.901-.733-1.634-1.634-1.634z" transform="translate(-1035 -601) translate(1034 124) translate(1 477)"/>
                    <path d="M4.62 8.185c-.19 0-.374-.1-.474-.275-.149-.261-.058-.594.203-.743l6.74-3.842c.26-.15.593-.058.741.204.15.261.059.594-.203.743L4.888 8.114c-.085.047-.177.07-.268.07zM11.358 14.176c-.092 0-.184-.023-.269-.072L4.35 10.263c-.261-.15-.352-.482-.203-.743.148-.263.48-.353.742-.204l6.739 3.842c.261.149.352.481.203.743-.1.176-.284.275-.473.275z" transform="translate(-1035 -601) translate(1034 124) translate(1 477)"/>
                </g>
            </g>
        </g>
    </g>
</svg>
