<svg xmlns="http://www.w3.org/2000/svg" width="53" height="63" viewBox="0 0 53 63">
    <g fill="none" fill-rule="evenodd">
        <g fill="#000" fill-rule="nonzero">
            <g>
                <g>
                    <path d="M51.487 10.171L27.441.188c-.603-.25-1.28-.25-1.882 0L1.513 10.17C.597 10.551 0 11.446 0 12.437v12.137c0 16.711 10.1 31.744 25.573 38.059.594.242 1.26.242 1.854 0C42.9 56.318 53 41.286 53 24.574V12.437c0-.991-.597-1.885-1.513-2.266zM49 24.357C49 39.216 40.307 52.894 26.5 59 13.062 53.057 4 39.619 4 24.357v-10.98L26.5 4 49 13.377v10.98zm-25.212 8.488l10.546-10.547c.959-.958 2.512-.958 3.47 0 .959.959.959 2.512 0 3.47L25.523 38.05c-.958.958-2.512.958-3.47 0l-6.857-6.858c-.959-.958-.959-2.511 0-3.47.958-.958 2.511-.958 3.47 0l5.122 5.123z" transform="translate(-1039 -1169) translate(0 1024) translate(1039 145)"/>
                </g>
            </g>
        </g>
    </g>
</svg>
