<svg xmlns="http://www.w3.org/2000/svg" width="16" height="19" viewBox="0 0 16 19">
    <g fill="none" fill-rule="evenodd">
        <g fill="#000" fill-rule="nonzero">
            <g>
                <g>
                    <path d="M14.243 6.244C14.243 2.795 11.448 0 7.999 0 4.551 0 1.755 2.795 1.755 6.244.864 6.354.021 6.938.021 8.29v3.26c0 1.527 1.068 2.082 2.081 2.082h1.006c.192 0 .347-.156.347-.347V6.57c0-.192-.155-.347-.347-.347H2.45c0-3.065 2.485-5.55 5.55-5.55s5.55 2.485 5.55 5.55h-.659c-.191 0-.347.155-.347.347v6.705c0 .192.156.347.347.347h.66c-.098 2.383-1.243 2.942-3.529 3.042v-.232c0-.383-.31-.694-.693-.694H7.146c-.383 0-.694.31-.694.694v1.127c0 .383.31.694.694.694h2.189c.383 0 .693-.31.693-.694v-.201c2.2-.1 4.1-.555 4.215-3.757.892-.11 1.734-.693 1.734-2.046V8.294c0-1.36-.839-1.94-1.734-2.05zm-11.482.649v6.035h-.676c-.514 0-1.388-.18-1.388-1.387V8.28c0-1.198.864-1.388 1.388-1.388h.676zm6.574 10.142v.528h-2.19v-1.128h2.19v.6zm5.949-5.484c0 1.197-.864 1.388-1.388 1.388h-.659V6.917h.676c.514 0 1.388.18 1.388 1.387l-.017 3.247z" transform="translate(-1035 -421) translate(1034 124) translate(1 297)"/>
                </g>
            </g>
        </g>
    </g>
</svg>
