<svg xmlns="http://www.w3.org/2000/svg" width="80" height="63" viewBox="0 0 80 63">
    <g fill="none" fill-rule="evenodd">
        <path fill="#06C7CA" d="M21.987 53.035v4.8c0 2.286-1.854 4.133-4.133 4.133h-2.933c-2.28 0-4.134-1.847-4.134-4.133v-4.8h11.2M68.489 53.035v4.8c0 2.286-1.848 4.133-4.134 4.133h-2.926c-2.286 0-4.14-1.847-4.14-4.133v-4.8h11.2"/>
        <path fill="#FF8875" d="M71.524 47.34h.285c1.575 0 2.85 1.276 2.85 2.845 0 1.574-1.275 2.85-2.85 2.85H50.648V47.34h20.876M28.628 47.34v5.695H7.466c-1.575 0-2.844-1.276-2.844-2.85 0-1.57 1.27-2.845 2.844-2.845h21.162M8.673 25.08c0 1.352-1.105 2.457-2.457 2.457h-2.8c-1.359 0-2.464-1.105-2.464-2.458 0-.679.28-1.301.724-1.746.444-.444 1.06-.717 1.74-.717h2.8c1.352 0 2.457 1.098 2.457 2.463M77.733 23.333c.45.445.724 1.067.724 1.746 0 1.353-1.105 2.458-2.463 2.458h-2.801c-1.36 0-2.456-1.105-2.456-2.458 0-1.365 1.097-2.463 2.456-2.463h2.8c.68 0 1.296.273 1.74.717"/>
        <path fill="#D3EEE4" d="M58.8 30.997H42.07c0-4.622 3.746-8.368 8.361-8.368 4.622 0 8.369 3.746 8.369 8.368"/>
        <path fill="#D3EEE4" d="M49.79 7.816c8.807 0 15.95 7.143 15.95 15.95v7.23H58.8c0-4.62-3.747-8.367-8.369-8.367-4.615 0-8.362 3.746-8.362 8.368H13.543v-7.232c0-8.806 7.136-15.95 15.95-15.95H49.79"/>
        <path fill="#FFDB93" d="M22.185 39.168c0-2.101-1.703-3.797-3.798-3.797-2.095 0-3.797 1.696-3.797 3.797 0 2.095 1.702 3.797 3.797 3.797s3.798-1.702 3.798-3.797zm42.316 0c0-2.101-1.701-3.797-3.796-3.797-2.102 0-3.798 1.696-3.798 3.797 0 2.095 1.696 3.797 3.798 3.797 2.095 0 3.796-1.702 3.796-3.797zM28.628 47.34H7.562V35.55c0-2.515 2.038-4.553 4.552-4.553h54.857c2.514 0 4.553 2.038 4.553 4.552v11.79H50.648V46h-22.02v1.34z"/>
        <path fill="#18252F" d="M8.514 47.34H6.61V35.55c0-3.036 2.469-5.506 5.504-5.506h1.429v1.905h-1.429c-1.984 0-3.6 1.615-3.6 3.6v11.79M72.476 47.34h-1.905V35.55c0-1.986-1.615-3.6-3.6-3.6H65.74v-1.906h1.231c3.035 0 5.505 2.47 5.505 5.505v11.79M17.854 62.92h-2.933c-2.805 0-5.086-2.28-5.086-5.085v-4.8h1.905v4.8c0 1.754 1.426 3.18 3.18 3.18h2.934c1.753 0 3.18-1.426 3.18-3.18v-4.8h1.905v4.8c0 2.804-2.281 5.086-5.085 5.086M64.355 62.92h-2.926c-2.808 0-5.092-2.28-5.092-5.085v-4.8h1.904v4.8c0 1.754 1.43 3.18 3.188 3.18h2.926c1.754 0 3.182-1.426 3.182-3.18v-4.8h1.904v4.8c0 2.804-2.282 5.086-5.086 5.086M49.536 7.816H47.63V1.905H31.454v5.91h-1.905V.953c0-.525.427-.952.953-.952h18.081c.526 0 .953.427.953.952v6.864M73.193 23.568c-.83 0-1.504.678-1.504 1.511 0 .83.674 1.505 1.504 1.505h2.8c.834 0 1.512-.675 1.512-1.505 0-.408-.156-.787-.44-1.068-.288-.287-.667-.443-1.071-.443h-2.801zm2.8 4.92h-2.8c-1.88 0-3.409-1.529-3.409-3.409 0-1.883 1.529-3.416 3.409-3.416h2.8c.914 0 1.771.355 2.414.997.636.627 1.003 1.51 1.003 2.42 0 1.88-1.533 3.409-3.416 3.409z"/>
        <path fill="#18252F" d="M66.819 30.997h-1.905c0-3.021 3.947-6.87 5.823-6.87v1.905c-.757.075-3.918 2.888-3.918 4.965M3.415 23.568c-.404 0-.783.156-1.066.439-.282.283-.444.674-.444 1.072 0 .83.677 1.505 1.51 1.505h2.8c.83 0 1.506-.675 1.506-1.505 0-.833-.676-1.51-1.505-1.51h-2.8zm2.8 4.92h-2.8C1.532 28.489 0 26.96 0 25.08c0-.9.365-1.78 1.002-2.419.643-.643 1.5-.997 2.413-.997h2.8c1.88 0 3.41 1.533 3.41 3.416 0 1.88-1.53 3.41-3.41 3.41z"/>
        <path fill="#18252F" d="M14.495 30.997H12.59c0-2.077-3.16-4.89-3.928-4.965l.011-1.905c1.876 0 5.822 3.849 5.822 6.87M18.387 36.324c-1.568 0-2.844 1.276-2.844 2.844 0 1.57 1.276 2.845 2.844 2.845 1.569 0 2.845-1.276 2.845-2.845 0-1.568-1.276-2.844-2.845-2.844zm0 7.593c-2.618 0-4.749-2.13-4.749-4.749 0-2.618 2.13-4.749 4.75-4.749 2.618 0 4.75 2.13 4.75 4.75 0 2.618-2.132 4.748-4.75 4.748zM60.705 36.324c-1.57 0-2.845 1.276-2.845 2.844 0 1.57 1.276 2.845 2.845 2.845 1.568 0 2.844-1.276 2.844-2.845 0-1.568-1.276-2.844-2.844-2.844zm0 7.593c-2.62 0-4.75-2.13-4.75-4.749 0-2.618 2.13-4.749 4.75-4.749 2.618 0 4.748 2.13 4.748 4.75 0 2.618-2.13 4.748-4.748 4.748zM28.628 53.987H7.466c-2.093 0-3.797-1.706-3.797-3.802 0-2.094 1.704-3.798 3.797-3.798h21.162v1.905H7.466c-1.043 0-1.892.849-1.892 1.893 0 1.046.849 1.898 1.892 1.898h21.162v1.904M71.809 53.987H50.648v-1.904h21.16c1.048 0 1.9-.852 1.9-1.898 0-1.044-.852-1.893-1.9-1.893h-21.16v-1.905h21.16c2.098 0 3.804 1.704 3.804 3.798 0 2.096-1.706 3.802-3.803 3.802"/>
        <path fill="#18252F" d="M29.58 53.79h20.115v-6.838H29.58v6.838zm21.068 1.905h-22.02c-.526 0-.952-.426-.952-.952V46c0-.526.426-.952.952-.952h22.02c.525 0 .952.426.952.952v8.743c0 .526-.427.952-.952.952zM30.737 40.121L48.546 40.121 48.546 38.216 30.737 38.216zM65.74 31.95H58.8v-1.906h5.987v-6.279c0-8.27-6.727-14.997-14.997-14.997H29.492c-8.27 0-14.997 6.728-14.997 14.997v6.28H42.07v1.904H13.543c-.526 0-.953-.426-.953-.952v-7.232c0-9.32 7.582-16.902 16.902-16.902H49.79c9.32 0 16.902 7.583 16.902 16.902v7.232c0 .526-.427.952-.952.952"/>
        <path fill="#18252F" d="M34.019 13.213L36.622 13.213 36.622 11.308 34.019 11.308zM18.94 23.765h-1.905c0-6.868 5.588-12.457 12.457-12.457h2.927v1.905h-2.927c-5.818 0-10.552 4.734-10.552 10.552M43.083 30.044h14.704c-.47-3.64-3.589-6.463-7.356-6.463-3.762 0-6.88 2.822-7.348 6.463zM58.8 31.95H42.07c-.527 0-.953-.426-.953-.952 0-5.14 4.178-9.32 9.314-9.32 5.14 0 9.321 4.18 9.321 9.32 0 .526-.426.952-.952.952zM35.364 5.34L43.727 5.34 43.727 3.435 35.364 3.435z"/>
    </g>
</svg>
