<svg xmlns="http://www.w3.org/2000/svg" width="20" height="22" viewBox="0 0 20 22">
    <g>
        <path d="M9.668 0c-3.199 0-5.8 2.602-5.8 5.8 0 3.2 2.601 5.802 5.8 5.802s5.8-2.603 5.8-5.801c0-3.199-2.601-5.801-5.8-5.801zm0 10.313c-2.488 0-4.512-2.024-4.512-4.512 0-2.488 2.024-4.512 4.512-4.512 2.488 0 4.512 2.024 4.512 4.512 0 2.488-2.024 4.511-4.512 4.511zM11.465 12.934H7.87c-2.973 0-5.908 1.372-7.87 4.316V22h19.336v-4.75c-1.96-2.94-4.893-4.316-7.87-4.316zm6.582 7.777H1.289v-3.066c1.505-2.147 3.951-3.422 6.581-3.422h3.596c2.63 0 5.076 1.275 6.58 3.422v3.066z"/>
    </g>
</svg>
