<svg xmlns="http://www.w3.org/2000/svg" width="16" height="17" viewBox="0 0 16 17">
    <g fill="none" fill-rule="evenodd">
        <g fill="#000" fill-rule="nonzero">
            <g>
                <g>
                    <g>
                        <path d="M15.654 9.314h-.664V7.338c0-.573-.411-1.052-.954-1.158l.552-.551c.19-.19.296-.444.296-.713 0-.27-.106-.523-.296-.714L10.678.295c-.394-.393-1.034-.393-1.428 0L3.382 6.159H1.194c-.65 0-1.18.529-1.18 1.18v8.477c0 .65.53 1.18 1.18 1.18H13.81c.65 0 1.18-.53 1.18-1.18V13.84h.664c.183 0 .332-.148.332-.332V9.646c0-.183-.149-.332-.332-.332zM9.719.764c.135-.134.354-.134.49 0l3.91 3.908c.065.065.1.151.1.244 0 .092-.035.178-.1.243l-1 1h-1.164l.423-.423c.063-.063.098-.147.098-.235s-.035-.173-.098-.235c-.093-.094-.145-.218-.145-.35 0-.133.052-.257.145-.35.063-.063.098-.148.098-.236s-.035-.172-.098-.235l-1.594-1.593c-.13-.13-.34-.13-.47 0-.193.194-.508.194-.701 0-.13-.13-.34-.13-.47 0L5.485 6.16H4.321L9.719.765zm1.99 4.703l-.693.692H6.424l2.988-2.987c.343.185.76.185 1.103 0l1.193 1.192c-.09.168-.139.356-.139.552 0 .195.048.383.14.55zM.676 15.816V7.338c0-.284.232-.515.517-.515h.873v9.508h-.873c-.285 0-.517-.231-.517-.515zm13.65 0c0 .284-.232.515-.517.515H2.73V6.823h11.08c.284 0 .516.231.516.515v1.976H11.81c-1.248 0-2.263 1.015-2.263 2.263s1.015 2.263 2.263 2.263h2.516v1.976zm.995-2.64H11.81c-.882 0-1.6-.717-1.6-1.599s.718-1.6 1.6-1.6h3.512v3.2z" transform="translate(-1035 -363) translate(1034 124) translate(1 221) translate(0 18)"/>
                        <path d="M10.928 11.577c0 .608.495 1.103 1.103 1.103.609 0 1.104-.495 1.104-1.103s-.495-1.103-1.104-1.103c-.608 0-1.103.495-1.103 1.103zm1.103-.439c.243 0 .44.197.44.439s-.197.44-.44.44c-.242 0-.44-.198-.44-.44s.198-.439.44-.439z" transform="translate(-1035 -363) translate(1034 124) translate(1 221) translate(0 18)"/>
                    </g>
                </g>
            </g>
        </g>
    </g>
</svg>
